<?xml version="1.0" encoding="UTF-8"?>
<!--Generator: Apple Native CoreSVG 149-->
<!DOCTYPE svg
PUBLIC "-//W3C//DTD SVG 1.1//EN"
       "http://www.w3.org/Graphics/SVG/1.1/DTD/svg11.dtd">
<svg version="1.1" xmlns="http://www.w3.org/2000/svg" xmlns:xlink="http://www.w3.org/1999/xlink" width="3300" height="2200">
 <!--glyph: "uni1002B9.medium", point size: 100.000000, font version: "Version 16.0d12e3", template writer version: "8"-->
 <g id="Notes">
  <rect height="2200" id="artboard" style="fill:white;opacity:1" width="3300" x="0" y="0"/>
  <line id="" style="fill:none;stroke:black;opacity:1;stroke-width:0.5;" x1="263" x2="3036" y1="292" y2="292"/>
  <text style="stroke:none;fill:black;font-family:-apple-system,&quot;SF Pro Display&quot;,&quot;SF Pro Text&quot;,Helvetica,sans-serif;font-weight:bold;" transform="matrix(1 0 0 1 263 322)">Weight/Scale Variations</text>
  <text style="stroke:none;fill:black;font-family:-apple-system,&quot;SF Pro Display&quot;,&quot;SF Pro Text&quot;,Helvetica,sans-serif;text-anchor:middle;" transform="matrix(1 0 0 1 559.711 322)">Ultralight</text>
  <text style="stroke:none;fill:black;font-family:-apple-system,&quot;SF Pro Display&quot;,&quot;SF Pro Text&quot;,Helvetica,sans-serif;text-anchor:middle;" transform="matrix(1 0 0 1 856.422 322)">Thin</text>
  <text style="stroke:none;fill:black;font-family:-apple-system,&quot;SF Pro Display&quot;,&quot;SF Pro Text&quot;,Helvetica,sans-serif;text-anchor:middle;" transform="matrix(1 0 0 1 1153.13 322)">Light</text>
  <text style="stroke:none;fill:black;font-family:-apple-system,&quot;SF Pro Display&quot;,&quot;SF Pro Text&quot;,Helvetica,sans-serif;text-anchor:middle;" transform="matrix(1 0 0 1 1449.84 322)">Regular</text>
  <text style="stroke:none;fill:black;font-family:-apple-system,&quot;SF Pro Display&quot;,&quot;SF Pro Text&quot;,Helvetica,sans-serif;text-anchor:middle;" transform="matrix(1 0 0 1 1746.56 322)">Medium</text>
  <text style="stroke:none;fill:black;font-family:-apple-system,&quot;SF Pro Display&quot;,&quot;SF Pro Text&quot;,Helvetica,sans-serif;text-anchor:middle;" transform="matrix(1 0 0 1 2043.27 322)">Semibold</text>
  <text style="stroke:none;fill:black;font-family:-apple-system,&quot;SF Pro Display&quot;,&quot;SF Pro Text&quot;,Helvetica,sans-serif;text-anchor:middle;" transform="matrix(1 0 0 1 2339.98 322)">Bold</text>
  <text style="stroke:none;fill:black;font-family:-apple-system,&quot;SF Pro Display&quot;,&quot;SF Pro Text&quot;,Helvetica,sans-serif;text-anchor:middle;" transform="matrix(1 0 0 1 2636.69 322)">Heavy</text>
  <text style="stroke:none;fill:black;font-family:-apple-system,&quot;SF Pro Display&quot;,&quot;SF Pro Text&quot;,Helvetica,sans-serif;text-anchor:middle;" transform="matrix(1 0 0 1 2933.4 322)">Black</text>
  <line id="" style="fill:none;stroke:black;opacity:1;stroke-width:0.5;" x1="263" x2="3036" y1="1903" y2="1903"/>
  <g id="" transform="matrix(1 0 0 1 263 1933)">
   <path d="M9.24805 0.830078C13.5547 0.830078 17.1387-2.74414 17.1387-7.05078C17.1387-11.3574 13.5449-14.9316 9.23828-14.9316C4.94141-14.9316 1.36719-11.3574 1.36719-7.05078C1.36719-2.74414 4.95117 0.830078 9.24805 0.830078ZM9.24805-0.654297C5.70312-0.654297 2.87109-3.49609 2.87109-7.05078C2.87109-10.6055 5.69336-13.4473 9.23828-13.4473C12.793-13.4473 15.6348-10.6055 15.6445-7.05078C15.6543-3.49609 12.8027-0.654297 9.24805-0.654297ZM9.22852-3.62305C9.69727-3.62305 9.9707-3.93555 9.9707-4.45312L9.9707-6.31836L12.002-6.31836C12.5-6.31836 12.832-6.57227 12.832-7.04102C12.832-7.51953 12.5195-7.7832 12.002-7.7832L9.9707-7.7832L9.9707-9.81445C9.9707-10.332 9.69727-10.6543 9.22852-10.6543C8.75977-10.6543 8.50586-10.3125 8.50586-9.81445L8.50586-7.7832L6.49414-7.7832C5.97656-7.7832 5.64453-7.51953 5.64453-7.04102C5.64453-6.57227 5.99609-6.31836 6.49414-6.31836L8.50586-6.31836L8.50586-4.45312C8.50586-3.95508 8.75977-3.62305 9.22852-3.62305Z"/>
  </g>
  <g id="" transform="matrix(1 0 0 1 281.506 1933)">
   <path d="M11.709 2.91016C17.1582 2.91016 21.6699-1.61133 21.6699-7.05078C21.6699-12.5 17.1484-17.0117 11.6992-17.0117C6.25977-17.0117 1.74805-12.5 1.74805-7.05078C1.74805-1.61133 6.26953 2.91016 11.709 2.91016ZM11.709 1.25C7.09961 1.25 3.41797-2.44141 3.41797-7.05078C3.41797-11.6602 7.08984-15.3516 11.6992-15.3516C16.3086-15.3516 20-11.6602 20.0098-7.05078C20.0195-2.44141 16.3184 1.25 11.709 1.25ZM11.6797-2.66602C12.207-2.66602 12.5098-3.01758 12.5098-3.59375L12.5098-6.23047L15.3223-6.23047C15.8691-6.23047 16.25-6.51367 16.25-7.03125C16.25-7.55859 15.8887-7.86133 15.3223-7.86133L12.5098-7.86133L12.5098-10.6836C12.5098-11.25 12.207-11.6113 11.6797-11.6113C11.1621-11.6113 10.8789-11.2305 10.8789-10.6836L10.8789-7.86133L8.07617-7.86133C7.50977-7.86133 7.13867-7.55859 7.13867-7.03125C7.13867-6.51367 7.5293-6.23047 8.07617-6.23047L10.8789-6.23047L10.8789-3.59375C10.8789-3.03711 11.1621-2.66602 11.6797-2.66602Z"/>
  </g>
  <g id="" transform="matrix(1 0 0 1 304.924 1933)">
   <path d="M14.9707 5.66406C21.9336 5.66406 27.6953-0.0976562 27.6953-7.05078C27.6953-14.0137 21.9238-19.7754 14.9609-19.7754C8.00781-19.7754 2.25586-14.0137 2.25586-7.05078C2.25586-0.0976562 8.01758 5.66406 14.9707 5.66406ZM14.9707 3.84766C8.93555 3.84766 4.08203-1.01562 4.08203-7.05078C4.08203-13.0957 8.92578-17.9492 14.9609-17.9492C21.0059-17.9492 25.8594-13.0957 25.8691-7.05078C25.8789-1.01562 21.0156 3.84766 14.9707 3.84766ZM14.9414-1.38672C15.5176-1.38672 15.8594-1.77734 15.8594-2.38281L15.8594-6.13281L19.7754-6.13281C20.3711-6.13281 20.7812-6.46484 20.7812-7.02148C20.7812-7.59766 20.3906-7.93945 19.7754-7.93945L15.8594-7.93945L15.8594-11.8652C15.8594-12.4805 15.5176-12.8711 14.9414-12.8711C14.375-12.8711 14.0527-12.4609 14.0527-11.8652L14.0527-7.93945L10.1465-7.93945C9.53125-7.93945 9.13086-7.59766 9.13086-7.02148C9.13086-6.46484 9.55078-6.13281 10.1465-6.13281L14.0527-6.13281L14.0527-2.38281C14.0527-1.79688 14.375-1.38672 14.9414-1.38672Z"/>
  </g>
  <text style="stroke:none;fill:black;font-family:-apple-system,&quot;SF Pro Display&quot;,&quot;SF Pro Text&quot;,Helvetica,sans-serif;font-weight:bold;" transform="matrix(1 0 0 1 263 1953)">Design Variations</text>
  <text style="stroke:none;fill:black;font-family:-apple-system,&quot;SF Pro Display&quot;,&quot;SF Pro Text&quot;,Helvetica,sans-serif;" transform="matrix(1 0 0 1 263 1971)">Symbols are supported in up to nine weights and three scales.</text>
  <text style="stroke:none;fill:black;font-family:-apple-system,&quot;SF Pro Display&quot;,&quot;SF Pro Text&quot;,Helvetica,sans-serif;" transform="matrix(1 0 0 1 263 1989)">For optimal layout with text and other symbols, vertically align</text>
  <text style="stroke:none;fill:black;font-family:-apple-system,&quot;SF Pro Display&quot;,&quot;SF Pro Text&quot;,Helvetica,sans-serif;" transform="matrix(1 0 0 1 263 2007)">symbols with the adjacent text.</text>
  <line id="" style="fill:none;stroke:#00AEEF;stroke-width:0.5;opacity:1.0;" x1="776" x2="776" y1="1919" y2="1933"/>
  <g id="" transform="matrix(1 0 0 1 776 1933)">
   <path d="M3.31055 0.126953C3.82812 0.126953 4.08203-0.0683594 4.26758-0.605469L5.52734-4.0625L11.2891-4.0625L12.5488-0.605469C12.7344-0.0683594 12.9883 0.126953 13.4961 0.126953C14.0137 0.126953 14.3457-0.185547 14.3457-0.673828C14.3457-0.839844 14.3164-0.986328 14.2383-1.20117L9.6582-13.3887C9.43359-13.9941 9.0332-14.2871 8.4082-14.2871C7.80273-14.2871 7.39258-13.9941 7.17773-13.3984L2.59766-1.19141C2.51953-0.976562 2.49023-0.830078 2.49023-0.664062C2.49023-0.175781 2.80273 0.126953 3.31055 0.126953ZM6.00586-5.53711L8.37891-12.1094L8.42773-12.1094L10.8008-5.53711Z"/>
  </g>
  <line id="" style="fill:none;stroke:#00AEEF;stroke-width:0.5;opacity:1.0;" x1="792.836" x2="792.836" y1="1919" y2="1933"/>
  <text style="stroke:none;fill:black;font-family:-apple-system,&quot;SF Pro Display&quot;,&quot;SF Pro Text&quot;,Helvetica,sans-serif;font-weight:bold;" transform="matrix(1 0 0 1 776 1953)">Margins</text>
  <text style="stroke:none;fill:black;font-family:-apple-system,&quot;SF Pro Display&quot;,&quot;SF Pro Text&quot;,Helvetica,sans-serif;" transform="matrix(1 0 0 1 776 1971)">Leading and trailing margins on the left and right side of each symbol</text>
  <text style="stroke:none;fill:black;font-family:-apple-system,&quot;SF Pro Display&quot;,&quot;SF Pro Text&quot;,Helvetica,sans-serif;" transform="matrix(1 0 0 1 776 1989)">can be adjusted by modifying the x-location of the margin guidelines.</text>
  <text style="stroke:none;fill:black;font-family:-apple-system,&quot;SF Pro Display&quot;,&quot;SF Pro Text&quot;,Helvetica,sans-serif;" transform="matrix(1 0 0 1 776 2007)">Modifications are automatically applied proportionally to all</text>
  <text style="stroke:none;fill:black;font-family:-apple-system,&quot;SF Pro Display&quot;,&quot;SF Pro Text&quot;,Helvetica,sans-serif;" transform="matrix(1 0 0 1 776 2025)">scales and weights.</text>
  <g id="" transform="matrix(1 0 0 1 1289 1933)">
   <path d="M2.8418 1.86523L4.54102 3.57422C5.40039 4.44336 6.38672 4.38477 7.31445 3.35938L17.4902-7.85156C17.7539-7.76367 18.0273-7.7832 18.3398-7.8418L19.4043-8.03711L20.0684-7.36328L20.0293-6.80664C19.9902-6.30859 20.1172-5.92773 20.6055-5.44922L21.3672-4.70703C21.8457-4.22852 22.4609-4.19922 22.9297-4.66797L25.8398-7.58789C26.3086-8.05664 26.2891-8.65234 25.8105-9.13086L25.0391-9.89258C24.5605-10.3711 24.1895-10.5273 23.7109-10.4883L23.1348-10.4395L22.4902-11.0742L22.7344-12.1973C22.8613-12.7637 22.7051-13.2031 22.1191-13.7891L19.9219-15.9766C16.582-19.2969 12.1484-19.2188 9.25781-16.3281C8.83789-15.918 8.80859-15.3418 9.04297-14.9512C9.27734-14.5898 9.73633-14.3555 10.3809-14.5215C11.8457-14.8633 13.3691-14.9219 14.7949-13.9844L14.209-12.5293C14.0137-12.0508 13.9844-11.6504 14.1113-11.2891L3.04688-0.898438C2.06055 0.0195312 1.98242 0.996094 2.8418 1.86523ZM10.752-15.957C13.1836-17.7344 16.4746-17.4316 18.7012-15.2051L21.1328-12.793C21.3672-12.5586 21.4062-12.373 21.3379-12.0312L21.0156-10.5469L22.5195-9.0625L23.5059-9.12109C23.7598-9.13086 23.8379-9.11133 24.0332-8.91602L24.6094-8.33984L22.168-5.89844L21.5918-6.47461C21.3965-6.66992 21.3672-6.74805 21.377-7.01172L21.4453-7.98828L19.9512-9.47266L18.4277-9.21875C18.1055-9.15039 17.959-9.17969 17.7148-9.41406L15.7129-11.416C15.459-11.6504 15.4297-11.8164 15.5859-12.1875L16.4648-14.2773C14.9023-15.7324 12.8711-16.3574 10.8398-15.7617C10.6836-15.7227 10.625-15.8496 10.752-15.957ZM5.27344 2.30469L4.10156 1.14258C3.63281 0.683594 3.74023 0.341797 4.14062-0.0195312L14.9512-10.1953L16.416-8.71094L6.42578 2.27539C6.07422 2.67578 5.74219 2.77344 5.27344 2.30469Z"/>
  </g>
  <text style="stroke:none;fill:black;font-family:-apple-system,&quot;SF Pro Display&quot;,&quot;SF Pro Text&quot;,Helvetica,sans-serif;font-weight:bold;" transform="matrix(1 0 0 1 1289 1953)">Exporting</text>
  <text style="stroke:none;fill:black;font-family:-apple-system,&quot;SF Pro Display&quot;,&quot;SF Pro Text&quot;,Helvetica,sans-serif;" transform="matrix(1 0 0 1 1289 1971)">Symbols should be outlined when exporting to ensure the</text>
  <text style="stroke:none;fill:black;font-family:-apple-system,&quot;SF Pro Display&quot;,&quot;SF Pro Text&quot;,Helvetica,sans-serif;" transform="matrix(1 0 0 1 1289 1989)">design is preserved when submitting to Xcode.</text>
  <text id="template-version" style="stroke:none;fill:black;font-family:-apple-system,&quot;SF Pro Display&quot;,&quot;SF Pro Text&quot;,Helvetica,sans-serif;text-anchor:end;" transform="matrix(1 0 0 1 3036 1933)">Template v.2.0</text>
  <text style="stroke:none;fill:black;font-family:-apple-system,&quot;SF Pro Display&quot;,&quot;SF Pro Text&quot;,Helvetica,sans-serif;text-anchor:end;" transform="matrix(1 0 0 1 3036 1951)">Requires Xcode 12 or greater</text>
  <text style="stroke:none;fill:black;font-family:-apple-system,&quot;SF Pro Display&quot;,&quot;SF Pro Text&quot;,Helvetica,sans-serif;text-anchor:end;" transform="matrix(1 0 0 1 3036 1969)">Generated from heart.circle.fill</text>
  <text style="stroke:none;fill:black;font-family:-apple-system,&quot;SF Pro Display&quot;,&quot;SF Pro Text&quot;,Helvetica,sans-serif;text-anchor:end;" transform="matrix(1 0 0 1 3036 1987)">Typeset at 100 points</text>
  <text style="stroke:none;fill:black;font-family:-apple-system,&quot;SF Pro Display&quot;,&quot;SF Pro Text&quot;,Helvetica,sans-serif;" transform="matrix(1 0 0 1 263 726)">Small</text>
  <text style="stroke:none;fill:black;font-family:-apple-system,&quot;SF Pro Display&quot;,&quot;SF Pro Text&quot;,Helvetica,sans-serif;" transform="matrix(1 0 0 1 263 1156)">Medium</text>
  <text style="stroke:none;fill:black;font-family:-apple-system,&quot;SF Pro Display&quot;,&quot;SF Pro Text&quot;,Helvetica,sans-serif;" transform="matrix(1 0 0 1 263 1586)">Large</text>
 </g>
 <g id="Guides">
  <g id="H-reference" style="fill:#27AAE1;stroke:none;" transform="matrix(1 0 0 1 339 696)">
   <path d="M0.976562 0L3.66211 0L12.9883-24.4629L45.752-24.4629L55.127 0L57.7637 0L30.6152-70.459L28.125-70.459ZM29.3457-67.1387L29.4434-67.1387L44.873-26.709L13.8672-26.709Z"/>
  </g>
  <line id="Baseline-S" style="fill:none;stroke:#27AAE1;opacity:1;stroke-width:0.5;" x1="263" x2="3036" y1="696" y2="696"/>
  <line id="Capline-S" style="fill:none;stroke:#27AAE1;opacity:1;stroke-width:0.5;" x1="263" x2="3036" y1="625.541" y2="625.541"/>
  <g id="H-reference" style="fill:#27AAE1;stroke:none;" transform="matrix(1 0 0 1 339 1126)">
   <path d="M0.976562 0L3.66211 0L12.9883-24.4629L45.752-24.4629L55.127 0L57.7637 0L30.6152-70.459L28.125-70.459ZM29.3457-67.1387L29.4434-67.1387L44.873-26.709L13.8672-26.709Z"/>
  </g>
  <line id="Baseline-M" style="fill:none;stroke:#27AAE1;opacity:1;stroke-width:0.5;" x1="263" x2="3036" y1="1126" y2="1126"/>
  <line id="Capline-M" style="fill:none;stroke:#27AAE1;opacity:1;stroke-width:0.5;" x1="263" x2="3036" y1="1055.54" y2="1055.54"/>
  <g id="H-reference" style="fill:#27AAE1;stroke:none;" transform="matrix(1 0 0 1 339 1556)">
   <path d="M0.976562 0L3.66211 0L12.9883-24.4629L45.752-24.4629L55.127 0L57.7637 0L30.6152-70.459L28.125-70.459ZM29.3457-67.1387L29.4434-67.1387L44.873-26.709L13.8672-26.709Z"/>
  </g>
  <line id="Baseline-L" style="fill:none;stroke:#27AAE1;opacity:1;stroke-width:0.5;" x1="263" x2="3036" y1="1556" y2="1556"/>
  <line id="Capline-L" style="fill:none;stroke:#27AAE1;opacity:1;stroke-width:0.5;" x1="263" x2="3036" y1="1485.54" y2="1485.54"/>
  <line id="left-margin" style="fill:none;stroke:#00AEEF;stroke-width:0.5;opacity:1.0;" x1="1391.3" x2="1391.3" y1="1030.79" y2="1150.12"/>
  <line id="right-margin" style="fill:none;stroke:#00AEEF;stroke-width:0.5;opacity:1.0;" x1="1508.39" x2="1508.39" y1="1030.79" y2="1150.12"/>
 </g>
 <g id="Symbols">
  <g id="Black-L" transform="matrix(1 0 0 1 2854.05 1556)">
   <path d="M79.3457 32.8613C116.748 32.8613 147.412 2.19727 147.412-35.2051C147.412-72.6074 116.748-103.271 79.2969-103.271C41.8945-103.271 11.2793-72.6074 11.2793-35.2051C11.2793 2.19727 41.9434 32.8613 79.3457 32.8613ZM64.1602-62.9883C71.5332-62.9883 76.6113-58.7402 79.2969-54.1016C81.9824-58.7402 87.0605-62.9883 94.4336-62.9883C104.541-62.9883 112.695-55.0781 112.695-43.1641C112.695-22.8027 89.1602-7.91016 83.4473-4.58984C82.1777-3.95508 80.6152-2.97852 79.3457-2.97852C78.125-2.97852 76.3672-3.95508 75.1465-4.58984C69.4824-8.00781 45.8984-22.8027 45.8984-43.1641C45.8984-55.0781 54.0527-62.9883 64.1602-62.9883Z"/>
  </g>
  <g id="Heavy-L" transform="matrix(1 0 0 1 2558.39 1556)">
   <path d="M78.2715 31.7871C115.088 31.7871 145.312 1.5625 145.312-35.2051C145.312-72.0215 115.039-102.246 78.2715-102.246C41.4551-102.246 11.2793-72.0215 11.2793-35.2051C11.2793 1.5625 41.5039 31.7871 78.2715 31.7871ZM63.0371-63.2324C70.2637-63.2324 75.4395-58.9844 78.2227-54.1504C81.0059-58.9844 86.2305-63.2324 93.457-63.2324C103.76-63.2324 111.865-55.2246 111.865-43.457C111.865-23.7793 89.4043-8.78906 82.0801-4.24805C80.9082-3.61328 79.4434-2.73438 78.2715-2.73438C77.1973-2.73438 75.5371-3.61328 74.3652-4.24805C67.041-8.78906 44.6289-23.7793 44.6289-43.457C44.6289-55.2246 52.7344-63.2324 63.0371-63.2324Z"/>
  </g>
  <g id="Bold-L" transform="matrix(1 0 0 1 2262.88 1556)">
   <path d="M77.0996 30.5664C113.232 30.5664 142.92 0.878906 142.92-35.2539C142.92-71.3379 113.184-101.074 77.0508-101.074C40.9668-101.074 11.2793-71.3379 11.2793-35.2539C11.2793 0.878906 41.0156 30.5664 77.0996 30.5664ZM61.7188-63.4766C68.8965-63.4766 74.1211-59.2773 77.0508-54.1504C79.9805-59.2773 85.2539-63.4766 92.3828-63.4766C102.881-63.4766 110.889-55.3711 110.889-43.75C110.889-24.9512 89.6973-9.76562 80.6152-3.90625C79.4922-3.27148 78.125-2.44141 77.0996-2.44141C76.123-2.44141 74.6094-3.27148 73.4863-3.90625C64.3066-9.66797 43.2129-24.9512 43.2129-43.75C43.2129-55.3711 51.2207-63.4766 61.7188-63.4766Z"/>
  </g>
  <g id="Semibold-L" transform="matrix(1 0 0 1 1966.97 1556)">
   <path d="M76.2695 29.7363C111.914 29.7363 141.309 0.390625 141.309-35.2539C141.309-70.8984 111.865-100.244 76.2695-100.244C40.625-100.244 11.2793-70.8984 11.2793-35.2539C11.2793 0.390625 40.6738 29.7363 76.2695 29.7363ZM60.8398-63.623C67.9199-63.623 73.2422-59.5215 76.2207-54.1504C79.248-59.5215 84.6191-63.623 91.6016-63.623C102.246-63.623 110.205-55.4688 110.205-43.9941C110.205-25.7324 89.8926-10.4492 79.5898-3.66211C78.5156-3.02734 77.2461-2.19727 76.3184-2.19727C75.4395-2.19727 73.9746-3.02734 72.9004-3.66211C62.4023-10.2539 42.2363-25.7324 42.2363-43.9941C42.2363-55.4688 50.1953-63.623 60.8398-63.623Z"/>
  </g>
  <g id="Medium-L" transform="matrix(1 0 0 1 1670.87 1556)">
   <path d="M75.6836 29.1504C110.938 29.1504 140.088 0 140.088-35.2539C140.088-70.5078 110.889-99.6582 75.6348-99.6582C40.3809-99.6582 11.2793-70.5078 11.2793-35.2539C11.2793 0 40.3809 29.1504 75.6836 29.1504ZM60.1562-63.7207C67.1875-63.7207 72.5586-59.668 75.5859-54.1504C78.6621-59.668 84.1309-63.7207 91.0645-63.7207C101.807-63.7207 109.717-55.5664 109.717-44.1406C109.717-26.3184 90.0391-10.9375 78.8086-3.51562C77.7832-2.83203 76.5625-2.05078 75.6836-2.05078C74.8535-2.05078 73.4863-2.83203 72.4121-3.51562C60.9863-10.6934 41.5039-26.3184 41.5039-44.1406C41.5039-55.5664 49.4141-63.7207 60.1562-63.7207Z"/>
  </g>
  <g id="Regular-L" transform="matrix(1 0 0 1 1374.97 1556)">
   <path d="M74.8535 28.3203C109.668 28.3203 138.477-0.488281 138.477-35.2539C138.477-70.0684 109.619-98.877 74.8047-98.877C40.0391-98.877 11.2793-70.0684 11.2793-35.2539C11.2793-0.488281 40.0879 28.3203 74.8535 28.3203ZM59.2773-63.916C66.2109-63.916 71.6309-59.8633 74.8047-54.1504C77.9785-59.8633 83.4473-63.916 90.332-63.916C101.172-63.916 109.082-55.6641 109.082-44.3848C109.082-27.0508 90.2344-11.6211 77.7832-3.27148C76.8066-2.58789 75.6836-1.85547 74.9023-1.85547C74.1699-1.85547 72.8516-2.58789 71.8262-3.27148C59.1309-11.2793 40.5273-27.0508 40.5273-44.3848C40.5273-55.6641 48.4375-63.916 59.2773-63.916Z"/>
  </g>
  <g id="Light-L" transform="matrix(1 0 0 1 1079.18 1556)">
   <path d="M73.9258 27.3926C108.301 27.3926 136.621-0.927734 136.621-35.2539C136.621-69.6289 108.252-97.9492 73.9258-97.9492C39.5508-97.9492 11.2793-69.6289 11.2793-35.2539C11.2793-0.927734 39.5996 27.3926 73.9258 27.3926ZM58.5449-63.8184C65.332-63.8184 70.8496-59.668 73.877-54.1992C76.9043-59.668 82.5195-63.8184 89.2578-63.8184C99.9512-63.8184 107.715-55.7129 107.715-44.7266C107.715-27.002 88.0371-11.7188 76.4648-3.66211C75.6348-3.07617 74.6094-2.49023 73.9746-2.49023C73.3398-2.49023 72.2168-3.125 71.3379-3.66211C59.4238-11.1816 40.0391-27.002 40.0391-44.7266C40.0391-55.7129 47.8516-63.8184 58.5449-63.8184Z"/>
  </g>
  <g id="Thin-L" transform="matrix(1 0 0 1 783.693 1556)">
   <path d="M72.7051 26.1719C106.494 26.1719 134.18-1.51367 134.18-35.2539C134.18-69.043 106.494-96.7285 72.7051-96.7285C38.9648-96.7285 11.2793-69.043 11.2793-35.2539C11.2793-1.51367 38.9648 26.1719 72.7051 26.1719ZM57.5195-63.6719C64.209-63.6719 69.8242-59.375 72.7051-54.2969C75.5371-59.375 81.25-63.6719 87.8418-63.6719C98.291-63.6719 105.957-55.7617 105.957-45.2148C105.957-26.8555 85.0586-11.8164 74.7559-4.24805C74.0723-3.71094 73.2422-3.36914 72.7051-3.36914C72.2168-3.36914 71.3379-3.80859 70.6055-4.24805C59.8145-11.0352 39.4043-26.8555 39.4043-45.2148C39.4043-55.7617 47.0703-63.6719 57.5195-63.6719Z"/>
  </g>
  <g id="Ultralight-L" transform="matrix(1 0 0 1 487.616 1556)">
   <path d="M72.1191 25.5371C105.566 25.5371 132.91-1.80664 132.91-35.2539C132.91-68.75 105.566-96.0938 72.1191-96.0938C38.623-96.0938 11.2793-68.75 11.2793-35.2539C11.2793-1.80664 38.623 25.5371 72.1191 25.5371ZM57.0312-63.623C63.6719-63.623 69.2871-59.2285 72.0703-54.3457C74.8535-59.2285 80.5664-63.623 87.1582-63.623C97.4609-63.623 105.078-55.8105 105.078-45.459C105.078-26.8066 83.5449-11.9141 73.877-4.54102C73.291-4.05273 72.5098-3.80859 72.0703-3.80859C71.6309-3.80859 70.8496-4.15039 70.2637-4.54102C60.0098-10.9375 39.1113-26.8066 39.1113-45.459C39.1113-55.8105 46.6797-63.623 57.0312-63.623Z"/>
  </g>
  <g id="Black-M" transform="matrix(1 0 0 1 2870.97 1126)">
   <path d="M62.4023 18.457C91.9922 18.457 116.113-5.61523 116.113-35.2051C116.113-64.7949 91.9922-88.8672 62.4023-88.8672C32.8125-88.8672 8.74023-64.7949 8.74023-35.2051C8.74023-5.61523 32.8125 18.457 62.4023 18.457ZM50.9277-56.4453C56.6895-56.4453 60.5469-52.9785 62.4023-49.9023C64.2578-52.9785 68.1152-56.4453 73.9258-56.4453C81.4453-56.4453 87.793-50.4395 87.793-41.1621C87.793-24.1699 67.5781-12.9395 65.8203-12.1094C64.7949-11.7188 63.4766-10.9375 62.4023-10.9375C61.3281-10.9375 59.9609-11.7188 59.0332-12.1094C57.3242-13.0371 37.0117-24.1699 37.0117-41.1621C37.0117-50.4395 43.4082-56.4453 50.9277-56.4453Z"/>
  </g>
  <g id="Heavy-M" transform="matrix(1 0 0 1 2575.19 1126)">
   <path d="M61.5234 17.5293C90.5273 17.5293 114.258-6.20117 114.258-35.2051C114.258-64.2578 90.5273-87.9883 61.4746-87.9883C32.4707-87.9883 8.74023-64.2578 8.74023-35.2051C8.74023-6.20117 32.4707 17.5293 61.5234 17.5293ZM49.8535-56.6895C55.5664-56.6895 59.4727-53.3203 61.4746-49.9023C63.4766-53.3203 67.4316-56.6895 73.1445-56.6895C80.9082-56.6895 87.207-50.5859 87.207-41.4062C87.207-25.293 68.457-13.8672 64.6484-11.6699C63.7207-11.2305 62.5-10.498 61.5234-10.498C60.5469-10.498 59.2285-11.2305 58.3008-11.6699C54.5898-13.916 35.791-25.293 35.791-41.4062C35.791-50.5859 42.0898-56.6895 49.8535-56.6895Z"/>
  </g>
  <g id="Bold-M" transform="matrix(1 0 0 1 2279.5 1126)">
   <path d="M60.498 16.5039C88.8672 16.5039 112.207-6.83594 112.207-35.2051C112.207-63.623 88.8672-86.9629 60.4492-86.9629C32.0312-86.9629 8.74023-63.623 8.74023-35.2051C8.74023-6.83594 32.0801 16.5039 60.498 16.5039ZM48.6328-56.9824C54.248-56.9824 58.252-53.7109 60.4492-49.8535C62.6465-53.7109 66.6992-56.9824 72.2656-56.9824C80.2734-56.9824 86.5234-50.7324 86.5234-41.6504C86.5234-26.5625 69.3848-14.8926 63.3789-11.1816C62.5-10.6445 61.377-9.96094 60.498-9.96094C59.668-9.96094 58.3984-10.6934 57.5195-11.1816C51.5137-14.8926 34.375-26.5625 34.375-41.6504C34.375-50.7324 40.625-56.9824 48.6328-56.9824Z"/>
  </g>
  <g id="Semibold-M" transform="matrix(1 0 0 1 1983.5 1126)">
   <path d="M59.7656 15.8203C87.7441 15.8203 110.791-7.27539 110.791-35.2539C110.791-63.2324 87.6953-86.2793 59.7656-86.2793C31.7871-86.2793 8.74023-63.2324 8.74023-35.2539C8.74023-7.27539 31.7871 15.8203 59.7656 15.8203ZM47.8027-57.1777C53.3691-57.1777 57.4219-53.9551 59.7168-49.8535C62.0605-53.9551 66.1621-57.1777 71.6309-57.1777C79.8828-57.1777 86.084-50.8789 86.084-41.7969C86.084-27.4414 70.0684-15.625 62.5488-10.8398C61.6699-10.3027 60.5957-9.61914 59.8145-9.61914C59.0332-9.61914 57.8613-10.3027 56.9336-10.8398C49.3652-15.5762 33.3984-27.4414 33.3984-41.7969C33.3984-50.8789 39.5996-57.1777 47.8027-57.1777Z"/>
  </g>
  <g id="Medium-M" transform="matrix(1 0 0 1 1687.3 1126)">
   <path d="M59.2285 15.2344C86.9141 15.2344 109.766-7.61719 109.766-35.2539C109.766-62.8906 86.8652-85.7422 59.1797-85.7422C31.543-85.7422 8.74023-62.8906 8.74023-35.2539C8.74023-7.61719 31.5918 15.2344 59.2285 15.2344ZM47.168-57.3242C52.6855-57.3242 56.7871-54.1504 59.1797-49.8535C61.5723-54.1504 65.7715-57.3242 71.1914-57.3242C79.541-57.3242 85.7422-50.9277 85.7422-41.9434C85.7422-28.0762 70.5566-16.1621 61.8652-10.5469C61.0352-10.0098 60.0098-9.32617 59.2773-9.32617C58.5938-9.32617 57.4219-10.0098 56.4941-10.5469C47.7539-16.0645 32.666-28.0762 32.666-41.9434C32.666-50.9277 38.8672-57.3242 47.168-57.3242Z"/>
  </g>
  <g id="Regular-M" transform="matrix(1 0 0 1 1391.3 1126)">
   <path d="M58.5449 14.5508C85.791 14.5508 108.35-8.05664 108.35-35.2539C108.35-62.5 85.7422-85.0586 58.4961-85.0586C31.2988-85.0586 8.74023-62.5 8.74023-35.2539C8.74023-8.05664 31.3477 14.5508 58.5449 14.5508ZM46.3867-57.5195C51.8066-57.5195 55.957-54.4434 58.4961-49.8535C60.9863-54.4434 65.2344-57.5195 70.6055-57.5195C79.1016-57.5195 85.3027-51.0742 85.3027-42.1387C85.3027-28.9551 71.2402-16.8945 60.9863-10.2051C60.2051-9.61914 59.2285-8.98438 58.5938-8.98438C57.959-8.98438 56.8359-9.66797 55.957-10.2051C45.6543-16.748 31.6895-28.9551 31.6895-42.1387C31.6895-51.0742 37.8418-57.5195 46.3867-57.5195Z"/>
  </g>
  <g id="Light-M" transform="matrix(1 0 0 1 1095.42 1126)">
   <path d="M57.7148 13.7207C84.5215 13.7207 106.689-8.44727 106.689-35.2539C106.689-62.1094 84.5215-84.2285 57.666-84.2285C30.8594-84.2285 8.74023-62.1094 8.74023-35.2539C8.74023-8.44727 30.9082 13.7207 57.7148 13.7207ZM45.7031-57.4219C51.0254-57.4219 55.2734-54.248 57.666-49.9023C60.1074-54.248 64.3555-57.4219 69.6289-57.4219C78.0273-57.4219 84.082-51.0742 84.082-42.4316C84.082-28.8574 69.2383-16.9434 59.8633-10.5957C59.1797-10.1074 58.3008-9.57031 57.7637-9.57031C57.2266-9.57031 56.25-10.1074 55.5176-10.5957C45.8984-16.6504 31.25-28.8574 31.25-42.4316C31.25-51.0742 37.3535-57.4219 45.7031-57.4219Z"/>
  </g>
  <g id="Thin-M" transform="matrix(1 0 0 1 799.806 1126)">
   <path d="M56.6406 12.5977C82.9102 12.5977 104.492-8.98438 104.492-35.2539C104.492-61.5723 82.9102-83.1543 56.5918-83.1543C30.3223-83.1543 8.74023-61.5723 8.74023-35.2539C8.74023-8.98438 30.3223 12.5977 56.6406 12.5977ZM44.8242-57.3242C50.0488-57.3242 54.3457-54.0039 56.5918-50C58.8867-54.0039 63.2324-57.3242 68.4082-57.3242C76.5625-57.3242 82.5195-51.123 82.5195-42.8711C82.5195-28.7598 66.5527-17.0898 58.3008-11.084C57.7637-10.6934 57.0801-10.3516 56.6406-10.3516C56.2012-10.3516 55.4688-10.7422 54.8828-11.084C46.2891-16.5039 30.7129-28.7598 30.7129-42.8711C30.7129-51.123 36.6699-57.3242 44.8242-57.3242Z"/>
  </g>
  <g id="Ultralight-M" transform="matrix(1 0 0 1 503.656 1126)">
   <path d="M56.0547 12.0605C82.0801 12.0605 103.369-9.22852 103.369-35.2539C103.369-61.2793 82.0801-82.5684 56.0547-82.5684C30.0293-82.5684 8.74023-61.2793 8.74023-35.2539C8.74023-9.22852 30.0293 12.0605 56.0547 12.0605ZM44.3359-57.2754C49.5117-57.2754 53.9062-53.9062 56.0547-50.0488C58.252-53.9062 62.6465-57.2754 67.7734-57.2754C75.7812-57.2754 81.7383-51.1719 81.7383-43.0664C81.7383-28.7109 65.2344-17.1387 57.5195-11.3281C57.0312-10.9863 56.4453-10.7422 56.0547-10.7422C55.7129-10.7422 55.0781-11.0352 54.5898-11.3281C46.4844-16.4551 30.4199-28.7109 30.4199-43.0664C30.4199-51.1719 36.3281-57.2754 44.3359-57.2754Z"/>
  </g>
  <g id="Black-S" transform="matrix(1 0 0 1 2884.57 696)">
   <path d="M48.8281 6.78711C71.9727 6.78711 90.8203-12.0605 90.8203-35.2051C90.8203-58.3496 71.9727-77.1973 48.8281-77.1973C25.6836-77.1973 6.83594-58.3496 6.83594-35.2051C6.83594-12.0605 25.6836 6.78711 48.8281 6.78711ZM39.7949-51.8555C44.3359-51.8555 47.3633-49.1699 48.8281-46.7285C50.293-49.1699 53.3203-51.8555 57.8613-51.8555C63.7695-51.8555 68.75-47.168 68.75-39.8926C68.75-26.6602 53.0273-17.8223 51.4648-17.0898C50.6836-16.748 49.6582-16.1621 48.8281-16.1621C47.998-16.1621 46.9238-16.748 46.1914-17.0898C44.6777-17.9199 28.9062-26.6602 28.9062-39.8926C28.9062-47.168 33.8867-51.8555 39.7949-51.8555Z"/>
  </g>
  <g id="Heavy-S" transform="matrix(1 0 0 1 2588.47 696)">
   <path d="M48.2422 6.15234C70.9961 6.15234 89.5996-12.4512 89.5996-35.2051C89.5996-57.959 70.9961-76.6113 48.1934-76.6113C25.4395-76.6113 6.83594-57.959 6.83594-35.2051C6.83594-12.4512 25.4395 6.15234 48.2422 6.15234ZM39.0625-52.0508C43.5547-52.0508 46.6309-49.4629 48.1934-46.7285C49.8047-49.4629 52.8809-52.0508 57.373-52.0508C63.4766-52.0508 68.4082-47.2656 68.4082-40.0391C68.4082-27.5391 53.9062-18.5059 50.7324-16.6992C50-16.3086 49.0234-15.7227 48.2422-15.7227C47.4609-15.7227 46.4355-16.3086 45.7031-16.6992C42.5293-18.6035 27.9785-27.5391 27.9785-40.0391C27.9785-47.2656 32.959-52.0508 39.0625-52.0508Z"/>
  </g>
  <g id="Bold-S" transform="matrix(1 0 0 1 2292.44 696)">
   <path d="M47.5586 5.46875C69.873 5.46875 88.2324-12.8906 88.2324-35.2539C88.2324-57.5684 69.873-75.9277 47.5098-75.9277C25.1953-75.9277 6.83594-57.5684 6.83594-35.2539C6.83594-12.8906 25.1953 5.46875 47.5586 5.46875ZM38.2324-52.2949C42.627-52.2949 45.752-49.7559 47.5098-46.6797C49.2676-49.7559 52.4414-52.2949 56.8359-52.2949C63.1348-52.2949 68.0664-47.4121 68.0664-40.1855C68.0664-28.5156 54.8828-19.3359 49.9023-16.2598C49.1699-15.8691 48.291-15.2832 47.5586-15.2832C46.875-15.2832 45.8984-15.8691 45.1172-16.2598C40.1367-19.3359 26.9531-28.5156 26.9531-40.1855C26.9531-47.4121 31.8848-52.2949 38.2324-52.2949Z"/>
  </g>
  <g id="Semibold-S" transform="matrix(1 0 0 1 1996.2 696)">
   <path d="M47.0703 4.98047C69.0918 4.98047 87.3047-13.1836 87.3047-35.2539C87.3047-57.2754 69.0918-75.4883 47.0215-75.4883C25-75.4883 6.83594-57.2754 6.83594-35.2539C6.83594-13.1836 25.0488 4.98047 47.0703 4.98047ZM37.6465-52.4414C42.041-52.4414 45.2148-50 47.0215-46.6797C48.877-50 52.0996-52.4414 56.4453-52.4414C62.9395-52.4414 67.8223-47.4609 67.8223-40.2832C67.8223-29.1992 55.5664-19.873 49.3652-15.9668C48.6328-15.5273 47.7539-14.9414 47.1191-14.9414C46.4844-14.9414 45.5078-15.5273 44.7266-15.9668C38.5254-19.873 26.2695-29.1992 26.2695-40.2832C26.2695-47.4609 31.1523-52.4414 37.6465-52.4414Z"/>
  </g>
  <g id="Medium-S" transform="matrix(1 0 0 1 1699.83 696)">
   <path d="M46.7285 4.63867C68.5547 4.63867 86.6211-13.4277 86.6211-35.2539C86.6211-57.0801 68.5059-75.1465 46.6797-75.1465C24.8535-75.1465 6.83594-57.0801 6.83594-35.2539C6.83594-13.4277 24.9023 4.63867 46.7285 4.63867ZM37.207-52.5879C41.5527-52.5879 44.7754-50.1465 46.6797-46.6797C48.6328-50.1465 51.8555-52.5879 56.1523-52.5879C62.7441-52.5879 67.627-47.5098 67.627-40.3809C67.627-29.6875 56.1035-20.2637 48.9258-15.7227C48.2422-15.2832 47.3633-14.6973 46.7773-14.6973C46.1914-14.6973 45.2148-15.2832 44.4336-15.7227C37.2559-20.2637 25.7324-29.6875 25.7324-40.3809C25.7324-47.5098 30.6152-52.5879 37.207-52.5879Z"/>
  </g>
  <g id="Regular-S" transform="matrix(1 0 0 1 1403.58 696)">
   <path d="M46.2402 4.15039C67.7734 4.15039 85.6934-13.7207 85.6934-35.2539C85.6934-56.7871 67.7246-74.6582 46.1914-74.6582C24.707-74.6582 6.83594-56.7871 6.83594-35.2539C6.83594-13.7207 24.7559 4.15039 46.2402 4.15039ZM36.6699-52.7344C40.9668-52.7344 44.1895-50.3418 46.1914-46.6309C48.2422-50.3418 51.5137-52.7344 55.7617-52.7344C62.5-52.7344 67.3828-47.6074 67.3828-40.4785C67.3828-30.3711 56.7871-20.8008 48.3398-15.4297C47.7051-14.9414 46.875-14.4043 46.2891-14.4043C45.8008-14.4043 44.8242-14.9414 44.0918-15.4297C35.6445-20.8008 25.0488-30.3711 25.0488-40.4785C25.0488-47.6074 29.8828-52.7344 36.6699-52.7344Z"/>
  </g>
  <g id="Light-S" transform="matrix(1 0 0 1 1107.6 696)">
   <path d="M45.5078 3.41797C66.6992 3.41797 84.2285-14.0625 84.2285-35.2539C84.2285-56.4453 66.6504-73.9258 45.5078-73.9258C24.3164-73.9258 6.83594-56.4453 6.83594-35.2539C6.83594-14.0625 24.3652 3.41797 45.5078 3.41797ZM36.084-52.6367C40.2832-52.6367 43.5547-50.1953 45.5078-46.6797C47.4121-50.1953 50.7812-52.6367 54.9316-52.6367C61.5234-52.6367 66.3574-47.6562 66.3574-40.7715C66.3574-30.2734 54.9805-20.8984 47.3145-15.7715C46.7285-15.3809 46.0449-14.8926 45.5566-14.8926C45.1172-14.8926 44.2871-15.3809 43.6523-15.7715C35.8887-20.7031 24.6582-30.2734 24.6582-40.7715C24.6582-47.6562 29.4434-52.6367 36.084-52.6367Z"/>
  </g>
  <g id="Thin-S" transform="matrix(1 0 0 1 811.867 696)">
   <path d="M44.5801 2.49023C65.2832 2.49023 82.2754-14.5508 82.2754-35.2539C82.2754-55.957 65.2344-72.998 44.5312-72.998C23.8281-72.998 6.83594-55.957 6.83594-35.2539C6.83594-14.5508 23.877 2.49023 44.5801 2.49023ZM35.2539-52.5391C39.4043-52.5391 42.7734-50 44.5312-46.7773C46.3379-50 49.7559-52.5391 53.8086-52.5391C60.2539-52.5391 64.9414-47.6562 64.9414-41.1133C64.9414-30.1758 52.6367-20.9961 45.9961-16.2109C45.5078-15.8691 44.9219-15.5762 44.5801-15.5762C44.2383-15.5762 43.6035-15.918 43.1152-16.2109C36.1816-20.6055 24.1699-30.1758 24.1699-41.1133C24.1699-47.6562 28.8574-52.5391 35.2539-52.5391Z"/>
  </g>
  <g id="Ultralight-S" transform="matrix(1 0 0 1 515.644 696)">
   <path d="M44.043 1.95312C64.502 1.95312 81.2988-14.7949 81.2988-35.2539C81.2988-55.7129 64.502-72.4609 44.043-72.4609C23.584-72.4609 6.83594-55.7129 6.83594-35.2539C6.83594-14.7949 23.584 1.95312 44.043 1.95312ZM34.8633-52.4902C38.916-52.4902 42.334-49.9023 44.043-46.8262C45.8008-49.9023 49.2188-52.4902 53.2715-52.4902C59.5703-52.4902 64.209-47.7051 64.209-41.3086C64.209-30.127 51.4648-21.0449 45.2637-16.4551C44.873-16.1621 44.3848-15.918 44.043-15.918C43.75-15.918 43.2617-16.2109 42.8223-16.4551C36.3281-20.5078 23.877-30.127 23.877-41.3086C23.877-47.7051 28.5156-52.4902 34.8633-52.4902Z"/>
  </g>
 </g>
</svg>
