<?xml version="1.0" encoding="UTF-8"?>
<!--Generator: Apple Native CoreSVG 149-->
<!DOCTYPE svg
PUBLIC "-//W3C//DTD SVG 1.1//EN"
       "http://www.w3.org/Graphics/SVG/1.1/DTD/svg11.dtd">
<svg version="1.1" xmlns="http://www.w3.org/2000/svg" xmlns:xlink="http://www.w3.org/1999/xlink" width="3300" height="2200">
 <!--glyph: "uni100214.medium", point size: 100.000000, font version: "Version 16.0d12e3", template writer version: "8"-->
 <g id="Notes">
  <rect height="2200" id="artboard" style="fill:white;opacity:1" width="3300" x="0" y="0"/>
  <line id="" style="fill:none;stroke:black;opacity:1;stroke-width:0.5;" x1="263" x2="3036" y1="292" y2="292"/>
  <text style="stroke:none;fill:black;font-family:-apple-system,&quot;SF Pro Display&quot;,&quot;SF Pro Text&quot;,Helvetica,sans-serif;font-weight:bold;" transform="matrix(1 0 0 1 263 322)">Weight/Scale Variations</text>
  <text style="stroke:none;fill:black;font-family:-apple-system,&quot;SF Pro Display&quot;,&quot;SF Pro Text&quot;,Helvetica,sans-serif;text-anchor:middle;" transform="matrix(1 0 0 1 559.711 322)">Ultralight</text>
  <text style="stroke:none;fill:black;font-family:-apple-system,&quot;SF Pro Display&quot;,&quot;SF Pro Text&quot;,Helvetica,sans-serif;text-anchor:middle;" transform="matrix(1 0 0 1 856.422 322)">Thin</text>
  <text style="stroke:none;fill:black;font-family:-apple-system,&quot;SF Pro Display&quot;,&quot;SF Pro Text&quot;,Helvetica,sans-serif;text-anchor:middle;" transform="matrix(1 0 0 1 1153.13 322)">Light</text>
  <text style="stroke:none;fill:black;font-family:-apple-system,&quot;SF Pro Display&quot;,&quot;SF Pro Text&quot;,Helvetica,sans-serif;text-anchor:middle;" transform="matrix(1 0 0 1 1449.84 322)">Regular</text>
  <text style="stroke:none;fill:black;font-family:-apple-system,&quot;SF Pro Display&quot;,&quot;SF Pro Text&quot;,Helvetica,sans-serif;text-anchor:middle;" transform="matrix(1 0 0 1 1746.56 322)">Medium</text>
  <text style="stroke:none;fill:black;font-family:-apple-system,&quot;SF Pro Display&quot;,&quot;SF Pro Text&quot;,Helvetica,sans-serif;text-anchor:middle;" transform="matrix(1 0 0 1 2043.27 322)">Semibold</text>
  <text style="stroke:none;fill:black;font-family:-apple-system,&quot;SF Pro Display&quot;,&quot;SF Pro Text&quot;,Helvetica,sans-serif;text-anchor:middle;" transform="matrix(1 0 0 1 2339.98 322)">Bold</text>
  <text style="stroke:none;fill:black;font-family:-apple-system,&quot;SF Pro Display&quot;,&quot;SF Pro Text&quot;,Helvetica,sans-serif;text-anchor:middle;" transform="matrix(1 0 0 1 2636.69 322)">Heavy</text>
  <text style="stroke:none;fill:black;font-family:-apple-system,&quot;SF Pro Display&quot;,&quot;SF Pro Text&quot;,Helvetica,sans-serif;text-anchor:middle;" transform="matrix(1 0 0 1 2933.4 322)">Black</text>
  <line id="" style="fill:none;stroke:black;opacity:1;stroke-width:0.5;" x1="263" x2="3036" y1="1903" y2="1903"/>
  <g id="" transform="matrix(1 0 0 1 263 1933)">
   <path d="M9.24805 0.830078C13.5547 0.830078 17.1387-2.74414 17.1387-7.05078C17.1387-11.3574 13.5449-14.9316 9.23828-14.9316C4.94141-14.9316 1.36719-11.3574 1.36719-7.05078C1.36719-2.74414 4.95117 0.830078 9.24805 0.830078ZM9.24805-0.654297C5.70312-0.654297 2.87109-3.49609 2.87109-7.05078C2.87109-10.6055 5.69336-13.4473 9.23828-13.4473C12.793-13.4473 15.6348-10.6055 15.6445-7.05078C15.6543-3.49609 12.8027-0.654297 9.24805-0.654297ZM9.22852-3.62305C9.69727-3.62305 9.9707-3.93555 9.9707-4.45312L9.9707-6.31836L12.002-6.31836C12.5-6.31836 12.832-6.57227 12.832-7.04102C12.832-7.51953 12.5195-7.7832 12.002-7.7832L9.9707-7.7832L9.9707-9.81445C9.9707-10.332 9.69727-10.6543 9.22852-10.6543C8.75977-10.6543 8.50586-10.3125 8.50586-9.81445L8.50586-7.7832L6.49414-7.7832C5.97656-7.7832 5.64453-7.51953 5.64453-7.04102C5.64453-6.57227 5.99609-6.31836 6.49414-6.31836L8.50586-6.31836L8.50586-4.45312C8.50586-3.95508 8.75977-3.62305 9.22852-3.62305Z"/>
  </g>
  <g id="" transform="matrix(1 0 0 1 281.506 1933)">
   <path d="M11.709 2.91016C17.1582 2.91016 21.6699-1.61133 21.6699-7.05078C21.6699-12.5 17.1484-17.0117 11.6992-17.0117C6.25977-17.0117 1.74805-12.5 1.74805-7.05078C1.74805-1.61133 6.26953 2.91016 11.709 2.91016ZM11.709 1.25C7.09961 1.25 3.41797-2.44141 3.41797-7.05078C3.41797-11.6602 7.08984-15.3516 11.6992-15.3516C16.3086-15.3516 20-11.6602 20.0098-7.05078C20.0195-2.44141 16.3184 1.25 11.709 1.25ZM11.6797-2.66602C12.207-2.66602 12.5098-3.01758 12.5098-3.59375L12.5098-6.23047L15.3223-6.23047C15.8691-6.23047 16.25-6.51367 16.25-7.03125C16.25-7.55859 15.8887-7.86133 15.3223-7.86133L12.5098-7.86133L12.5098-10.6836C12.5098-11.25 12.207-11.6113 11.6797-11.6113C11.1621-11.6113 10.8789-11.2305 10.8789-10.6836L10.8789-7.86133L8.07617-7.86133C7.50977-7.86133 7.13867-7.55859 7.13867-7.03125C7.13867-6.51367 7.5293-6.23047 8.07617-6.23047L10.8789-6.23047L10.8789-3.59375C10.8789-3.03711 11.1621-2.66602 11.6797-2.66602Z"/>
  </g>
  <g id="" transform="matrix(1 0 0 1 304.924 1933)">
   <path d="M14.9707 5.66406C21.9336 5.66406 27.6953-0.0976562 27.6953-7.05078C27.6953-14.0137 21.9238-19.7754 14.9609-19.7754C8.00781-19.7754 2.25586-14.0137 2.25586-7.05078C2.25586-0.0976562 8.01758 5.66406 14.9707 5.66406ZM14.9707 3.84766C8.93555 3.84766 4.08203-1.01562 4.08203-7.05078C4.08203-13.0957 8.92578-17.9492 14.9609-17.9492C21.0059-17.9492 25.8594-13.0957 25.8691-7.05078C25.8789-1.01562 21.0156 3.84766 14.9707 3.84766ZM14.9414-1.38672C15.5176-1.38672 15.8594-1.77734 15.8594-2.38281L15.8594-6.13281L19.7754-6.13281C20.3711-6.13281 20.7812-6.46484 20.7812-7.02148C20.7812-7.59766 20.3906-7.93945 19.7754-7.93945L15.8594-7.93945L15.8594-11.8652C15.8594-12.4805 15.5176-12.8711 14.9414-12.8711C14.375-12.8711 14.0527-12.4609 14.0527-11.8652L14.0527-7.93945L10.1465-7.93945C9.53125-7.93945 9.13086-7.59766 9.13086-7.02148C9.13086-6.46484 9.55078-6.13281 10.1465-6.13281L14.0527-6.13281L14.0527-2.38281C14.0527-1.79688 14.375-1.38672 14.9414-1.38672Z"/>
  </g>
  <text style="stroke:none;fill:black;font-family:-apple-system,&quot;SF Pro Display&quot;,&quot;SF Pro Text&quot;,Helvetica,sans-serif;font-weight:bold;" transform="matrix(1 0 0 1 263 1953)">Design Variations</text>
  <text style="stroke:none;fill:black;font-family:-apple-system,&quot;SF Pro Display&quot;,&quot;SF Pro Text&quot;,Helvetica,sans-serif;" transform="matrix(1 0 0 1 263 1971)">Symbols are supported in up to nine weights and three scales.</text>
  <text style="stroke:none;fill:black;font-family:-apple-system,&quot;SF Pro Display&quot;,&quot;SF Pro Text&quot;,Helvetica,sans-serif;" transform="matrix(1 0 0 1 263 1989)">For optimal layout with text and other symbols, vertically align</text>
  <text style="stroke:none;fill:black;font-family:-apple-system,&quot;SF Pro Display&quot;,&quot;SF Pro Text&quot;,Helvetica,sans-serif;" transform="matrix(1 0 0 1 263 2007)">symbols with the adjacent text.</text>
  <line id="" style="fill:none;stroke:#00AEEF;stroke-width:0.5;opacity:1.0;" x1="776" x2="776" y1="1919" y2="1933"/>
  <g id="" transform="matrix(1 0 0 1 776 1933)">
   <path d="M3.31055 0.126953C3.82812 0.126953 4.08203-0.0683594 4.26758-0.605469L5.52734-4.0625L11.2891-4.0625L12.5488-0.605469C12.7344-0.0683594 12.9883 0.126953 13.4961 0.126953C14.0137 0.126953 14.3457-0.185547 14.3457-0.673828C14.3457-0.839844 14.3164-0.986328 14.2383-1.20117L9.6582-13.3887C9.43359-13.9941 9.0332-14.2871 8.4082-14.2871C7.80273-14.2871 7.39258-13.9941 7.17773-13.3984L2.59766-1.19141C2.51953-0.976562 2.49023-0.830078 2.49023-0.664062C2.49023-0.175781 2.80273 0.126953 3.31055 0.126953ZM6.00586-5.53711L8.37891-12.1094L8.42773-12.1094L10.8008-5.53711Z"/>
  </g>
  <line id="" style="fill:none;stroke:#00AEEF;stroke-width:0.5;opacity:1.0;" x1="792.836" x2="792.836" y1="1919" y2="1933"/>
  <text style="stroke:none;fill:black;font-family:-apple-system,&quot;SF Pro Display&quot;,&quot;SF Pro Text&quot;,Helvetica,sans-serif;font-weight:bold;" transform="matrix(1 0 0 1 776 1953)">Margins</text>
  <text style="stroke:none;fill:black;font-family:-apple-system,&quot;SF Pro Display&quot;,&quot;SF Pro Text&quot;,Helvetica,sans-serif;" transform="matrix(1 0 0 1 776 1971)">Leading and trailing margins on the left and right side of each symbol</text>
  <text style="stroke:none;fill:black;font-family:-apple-system,&quot;SF Pro Display&quot;,&quot;SF Pro Text&quot;,Helvetica,sans-serif;" transform="matrix(1 0 0 1 776 1989)">can be adjusted by modifying the x-location of the margin guidelines.</text>
  <text style="stroke:none;fill:black;font-family:-apple-system,&quot;SF Pro Display&quot;,&quot;SF Pro Text&quot;,Helvetica,sans-serif;" transform="matrix(1 0 0 1 776 2007)">Modifications are automatically applied proportionally to all</text>
  <text style="stroke:none;fill:black;font-family:-apple-system,&quot;SF Pro Display&quot;,&quot;SF Pro Text&quot;,Helvetica,sans-serif;" transform="matrix(1 0 0 1 776 2025)">scales and weights.</text>
  <g id="" transform="matrix(1 0 0 1 1289 1933)">
   <path d="M2.8418 1.86523L4.54102 3.57422C5.40039 4.44336 6.38672 4.38477 7.31445 3.35938L17.4902-7.85156C17.7539-7.76367 18.0273-7.7832 18.3398-7.8418L19.4043-8.03711L20.0684-7.36328L20.0293-6.80664C19.9902-6.30859 20.1172-5.92773 20.6055-5.44922L21.3672-4.70703C21.8457-4.22852 22.4609-4.19922 22.9297-4.66797L25.8398-7.58789C26.3086-8.05664 26.2891-8.65234 25.8105-9.13086L25.0391-9.89258C24.5605-10.3711 24.1895-10.5273 23.7109-10.4883L23.1348-10.4395L22.4902-11.0742L22.7344-12.1973C22.8613-12.7637 22.7051-13.2031 22.1191-13.7891L19.9219-15.9766C16.582-19.2969 12.1484-19.2188 9.25781-16.3281C8.83789-15.918 8.80859-15.3418 9.04297-14.9512C9.27734-14.5898 9.73633-14.3555 10.3809-14.5215C11.8457-14.8633 13.3691-14.9219 14.7949-13.9844L14.209-12.5293C14.0137-12.0508 13.9844-11.6504 14.1113-11.2891L3.04688-0.898438C2.06055 0.0195312 1.98242 0.996094 2.8418 1.86523ZM10.752-15.957C13.1836-17.7344 16.4746-17.4316 18.7012-15.2051L21.1328-12.793C21.3672-12.5586 21.4062-12.373 21.3379-12.0312L21.0156-10.5469L22.5195-9.0625L23.5059-9.12109C23.7598-9.13086 23.8379-9.11133 24.0332-8.91602L24.6094-8.33984L22.168-5.89844L21.5918-6.47461C21.3965-6.66992 21.3672-6.74805 21.377-7.01172L21.4453-7.98828L19.9512-9.47266L18.4277-9.21875C18.1055-9.15039 17.959-9.17969 17.7148-9.41406L15.7129-11.416C15.459-11.6504 15.4297-11.8164 15.5859-12.1875L16.4648-14.2773C14.9023-15.7324 12.8711-16.3574 10.8398-15.7617C10.6836-15.7227 10.625-15.8496 10.752-15.957ZM5.27344 2.30469L4.10156 1.14258C3.63281 0.683594 3.74023 0.341797 4.14062-0.0195312L14.9512-10.1953L16.416-8.71094L6.42578 2.27539C6.07422 2.67578 5.74219 2.77344 5.27344 2.30469Z"/>
  </g>
  <text style="stroke:none;fill:black;font-family:-apple-system,&quot;SF Pro Display&quot;,&quot;SF Pro Text&quot;,Helvetica,sans-serif;font-weight:bold;" transform="matrix(1 0 0 1 1289 1953)">Exporting</text>
  <text style="stroke:none;fill:black;font-family:-apple-system,&quot;SF Pro Display&quot;,&quot;SF Pro Text&quot;,Helvetica,sans-serif;" transform="matrix(1 0 0 1 1289 1971)">Symbols should be outlined when exporting to ensure the</text>
  <text style="stroke:none;fill:black;font-family:-apple-system,&quot;SF Pro Display&quot;,&quot;SF Pro Text&quot;,Helvetica,sans-serif;" transform="matrix(1 0 0 1 1289 1989)">design is preserved when submitting to Xcode.</text>
  <text id="template-version" style="stroke:none;fill:black;font-family:-apple-system,&quot;SF Pro Display&quot;,&quot;SF Pro Text&quot;,Helvetica,sans-serif;text-anchor:end;" transform="matrix(1 0 0 1 3036 1933)">Template v.2.0</text>
  <text style="stroke:none;fill:black;font-family:-apple-system,&quot;SF Pro Display&quot;,&quot;SF Pro Text&quot;,Helvetica,sans-serif;text-anchor:end;" transform="matrix(1 0 0 1 3036 1951)">Requires Xcode 12 or greater</text>
  <text style="stroke:none;fill:black;font-family:-apple-system,&quot;SF Pro Display&quot;,&quot;SF Pro Text&quot;,Helvetica,sans-serif;text-anchor:end;" transform="matrix(1 0 0 1 3036 1969)">Generated from trash.circle.fill</text>
  <text style="stroke:none;fill:black;font-family:-apple-system,&quot;SF Pro Display&quot;,&quot;SF Pro Text&quot;,Helvetica,sans-serif;text-anchor:end;" transform="matrix(1 0 0 1 3036 1987)">Typeset at 100 points</text>
  <text style="stroke:none;fill:black;font-family:-apple-system,&quot;SF Pro Display&quot;,&quot;SF Pro Text&quot;,Helvetica,sans-serif;" transform="matrix(1 0 0 1 263 726)">Small</text>
  <text style="stroke:none;fill:black;font-family:-apple-system,&quot;SF Pro Display&quot;,&quot;SF Pro Text&quot;,Helvetica,sans-serif;" transform="matrix(1 0 0 1 263 1156)">Medium</text>
  <text style="stroke:none;fill:black;font-family:-apple-system,&quot;SF Pro Display&quot;,&quot;SF Pro Text&quot;,Helvetica,sans-serif;" transform="matrix(1 0 0 1 263 1586)">Large</text>
 </g>
 <g id="Guides">
  <g id="H-reference" style="fill:#27AAE1;stroke:none;" transform="matrix(1 0 0 1 339 696)">
   <path d="M0.976562 0L3.66211 0L12.9883-24.4629L45.752-24.4629L55.127 0L57.7637 0L30.6152-70.459L28.125-70.459ZM29.3457-67.1387L29.4434-67.1387L44.873-26.709L13.8672-26.709Z"/>
  </g>
  <line id="Baseline-S" style="fill:none;stroke:#27AAE1;opacity:1;stroke-width:0.5;" x1="263" x2="3036" y1="696" y2="696"/>
  <line id="Capline-S" style="fill:none;stroke:#27AAE1;opacity:1;stroke-width:0.5;" x1="263" x2="3036" y1="625.541" y2="625.541"/>
  <g id="H-reference" style="fill:#27AAE1;stroke:none;" transform="matrix(1 0 0 1 339 1126)">
   <path d="M0.976562 0L3.66211 0L12.9883-24.4629L45.752-24.4629L55.127 0L57.7637 0L30.6152-70.459L28.125-70.459ZM29.3457-67.1387L29.4434-67.1387L44.873-26.709L13.8672-26.709Z"/>
  </g>
  <line id="Baseline-M" style="fill:none;stroke:#27AAE1;opacity:1;stroke-width:0.5;" x1="263" x2="3036" y1="1126" y2="1126"/>
  <line id="Capline-M" style="fill:none;stroke:#27AAE1;opacity:1;stroke-width:0.5;" x1="263" x2="3036" y1="1055.54" y2="1055.54"/>
  <g id="H-reference" style="fill:#27AAE1;stroke:none;" transform="matrix(1 0 0 1 339 1556)">
   <path d="M0.976562 0L3.66211 0L12.9883-24.4629L45.752-24.4629L55.127 0L57.7637 0L30.6152-70.459L28.125-70.459ZM29.3457-67.1387L29.4434-67.1387L44.873-26.709L13.8672-26.709Z"/>
  </g>
  <line id="Baseline-L" style="fill:none;stroke:#27AAE1;opacity:1;stroke-width:0.5;" x1="263" x2="3036" y1="1556" y2="1556"/>
  <line id="Capline-L" style="fill:none;stroke:#27AAE1;opacity:1;stroke-width:0.5;" x1="263" x2="3036" y1="1485.54" y2="1485.54"/>
  <line id="left-margin" style="fill:none;stroke:#00AEEF;stroke-width:0.5;opacity:1.0;" x1="1391.3" x2="1391.3" y1="1030.79" y2="1150.12"/>
  <line id="right-margin" style="fill:none;stroke:#00AEEF;stroke-width:0.5;opacity:1.0;" x1="1508.39" x2="1508.39" y1="1030.79" y2="1150.12"/>
 </g>
 <g id="Symbols">
  <g id="Black-L" transform="matrix(1 0 0 1 2854.05 1556)">
   <path d="M79.3457 32.9102C116.748 32.9102 147.412 2.29492 147.412-35.1074C147.412-72.5586 116.748-103.174 79.2969-103.174C41.8945-103.174 11.2793-72.5586 11.2793-35.1074C11.2793 2.29492 41.9434 32.9102 79.3457 32.9102ZM65.2344 1.31836C59.4238 1.31836 56.25-1.5625 55.957-7.32422L53.8574-52.4414L50.3418-52.4414C47.8516-52.4414 45.8008-54.248 45.8984-56.7383C45.9961-59.3262 47.8516-61.084 50.3418-61.084L62.8418-61.084L62.8418-64.1113C62.8418-70.3125 66.9922-74.0234 74.3164-74.0234L84.2773-74.0234C91.6504-74.0234 95.8008-70.3125 95.8008-64.1113L95.8008-61.084L108.252-61.084C110.889-61.084 112.744-59.3262 112.744-56.7383C112.695-54.248 110.889-52.4414 108.252-52.4414L104.834-52.4414L102.686-7.32422C102.441-1.5625 99.2676 1.31836 93.4082 1.31836ZM71.582-61.084L87.1094-61.084L87.0605-64.209C86.9629-65.5762 85.9375-66.6016 84.2773-66.6016L74.3652-66.6016C72.8027-66.6016 71.6797-65.5762 71.6309-64.209ZM68.6523-8.59375C70.2637-8.59375 71.4355-9.7168 71.3379-11.2305L70.4102-45.6543C70.3125-47.3633 69.2383-48.3887 67.7246-48.3887C65.9668-48.3887 64.9902-47.3145 65.0391-45.5566L65.9668-11.1816C66.0156-9.61914 67.1387-8.59375 68.6523-8.59375ZM79.3457-8.59375C81.0547-8.59375 82.0801-9.61914 82.0801-11.1816L82.0801-45.8008C82.0801-47.4121 81.0547-48.3887 79.3457-48.3887C77.6367-48.3887 76.6602-47.4121 76.6602-45.8008L76.6602-11.1816C76.6602-9.61914 77.6367-8.59375 79.3457-8.59375ZM90.0391-8.59375C91.5527-8.59375 92.627-9.61914 92.6758-11.1816L93.6523-45.5566C93.7012-47.3145 92.6758-48.3887 91.0156-48.3887C89.4531-48.3887 88.3301-47.3633 88.2812-45.6543L87.3047-11.2305C87.2559-9.7168 88.3789-8.59375 90.0391-8.59375Z"/>
  </g>
  <g id="Heavy-L" transform="matrix(1 0 0 1 2558.39 1556)">
   <path d="M78.2715 31.8848C115.088 31.8848 145.312 1.66016 145.312-35.1562C145.312-71.9238 115.039-102.148 78.2715-102.148C41.4551-102.148 11.2793-71.9238 11.2793-35.1562C11.2793 1.66016 41.5039 31.8848 78.2715 31.8848ZM63.623 1.66016C58.1543 1.66016 55.0781-1.07422 54.834-6.49414L52.6855-53.2715L48.6816-53.2715C46.4355-53.2715 44.5801-54.8828 44.6777-57.1289C44.7754-59.4238 46.4355-61.0352 48.6816-61.0352L62.0117-61.0352L62.0117-64.6484C62.0117-70.5566 66.0156-74.1699 72.8516-74.1699L83.5938-74.1699C90.5273-74.1699 94.5312-70.5566 94.5312-64.6484L94.5312-61.0352L107.764-61.0352C110.156-61.0352 111.816-59.4238 111.816-57.1289C111.768-54.8828 110.156-53.2715 107.764-53.2715L103.906-53.2715L101.709-6.49414C101.465-1.07422 98.3887 1.66016 92.9199 1.66016ZM70.0684-61.0352L86.4258-61.0352L86.377-64.5996C86.3281-66.1133 85.2539-67.1875 83.4961-67.1875L72.998-67.1875C71.2891-67.1875 70.166-66.1133 70.1172-64.5996ZM67.4805-8.25195C69.043-8.25195 70.1172-9.27734 70.0684-10.7422L68.9941-46.0938C68.8965-47.7051 67.8711-48.6816 66.4062-48.6816C64.7461-48.6816 63.7695-47.6562 63.8184-45.9961L64.9414-10.6934C64.9902-9.22852 66.0645-8.25195 67.4805-8.25195ZM78.2715-8.25195C79.834-8.25195 80.8594-9.27734 80.8594-10.6934L80.8594-46.1914C80.8594-47.7539 79.8828-48.6816 78.2715-48.6816C76.6113-48.6816 75.6836-47.7539 75.6836-46.1914L75.6836-10.6934C75.6836-9.27734 76.6113-8.25195 78.2715-8.25195ZM89.0137-8.25195C90.4297-8.25195 91.5039-9.22852 91.5527-10.6934L92.627-45.9961C92.6758-47.6562 91.748-48.6816 90.1367-48.6816C88.623-48.6816 87.5488-47.7051 87.5-46.0938L86.4258-10.7422C86.377-9.27734 87.4023-8.25195 89.0137-8.25195Z"/>
  </g>
  <g id="Bold-L" transform="matrix(1 0 0 1 2262.88 1556)">
   <path d="M77.0996 30.6641C113.232 30.6641 142.92 0.927734 142.92-35.1562C142.92-71.2891 113.184-100.977 77.0508-100.977C40.9668-100.977 11.2793-71.2891 11.2793-35.1562C11.2793 0.927734 41.0156 30.6641 77.0996 30.6641ZM61.7676 2.09961C56.7383 2.09961 53.8086-0.585938 53.6133-5.61523L51.3672-54.1504L46.8262-54.1504C44.873-54.1504 43.2617-55.5664 43.3105-57.5195C43.4082-59.5215 44.873-60.9863 46.8262-60.9863L61.084-60.9863L61.084-65.2344C61.084-70.8496 64.8926-74.3652 71.2402-74.3652L82.8613-74.3652C89.2578-74.3652 93.0664-70.8496 93.0664-65.2344L93.0664-60.9863L107.275-60.9863C109.277-60.9863 110.791-59.5215 110.742-57.5195C110.742-55.5664 109.277-54.1504 107.275-54.1504L102.881-54.1504L100.635-5.61523C100.439-0.585938 97.4121 2.09961 92.4316 2.09961ZM68.3594-60.9863L85.6934-60.9863L85.6934-65.0879C85.6445-66.6992 84.4727-67.8223 82.666-67.8223L71.3867-67.8223C69.6289-67.8223 68.4082-66.6992 68.4082-65.0879ZM66.2109-7.86133C67.6758-7.86133 68.6523-8.83789 68.6035-10.2539L67.3828-46.582C67.334-48.0957 66.3574-49.0234 64.9414-49.0234C63.3789-49.0234 62.4512-48.0469 62.5-46.4844L63.7695-10.1562C63.8184-8.78906 64.8438-7.86133 66.2109-7.86133ZM77.0508-7.86133C78.5156-7.86133 79.4922-8.83789 79.4922-10.2051L79.4922-46.6309C79.4922-48.0957 78.5645-49.0234 77.0508-49.0234C75.4883-49.0234 74.5605-48.0957 74.5605-46.6309L74.5605-10.2051C74.5605-8.83789 75.4883-7.86133 77.0508-7.86133ZM87.8418-7.86133C89.209-7.86133 90.1855-8.78906 90.2344-10.1562L91.5527-46.4844C91.5527-48.0469 90.6738-49.0234 89.1113-49.0234C87.6953-49.0234 86.6699-48.0957 86.6211-46.582L85.4004-10.2539C85.3516-8.83789 86.3281-7.86133 87.8418-7.86133Z"/>
  </g>
  <g id="Semibold-L" transform="matrix(1 0 0 1 1966.97 1556)">
   <path d="M76.2695 29.834C111.914 29.834 141.309 0.439453 141.309-35.1562C141.309-70.8008 111.865-100.195 76.2695-100.195C40.625-100.195 11.2793-70.8008 11.2793-35.1562C11.2793 0.439453 40.6738 29.834 76.2695 29.834ZM60.498 2.39258C55.7617 2.39258 52.9297-0.244141 52.7344-4.98047L50.4395-54.7852L45.5078-54.7852C43.75-54.7852 42.334-56.1035 42.3828-57.8125C42.4316-59.5703 43.75-60.9375 45.5078-60.9375L60.4492-60.9375L60.4492-65.625C60.4492-71.0449 64.1113-74.4629 70.166-74.4629L82.3242-74.4629C88.3789-74.4629 92.0898-71.0449 92.0898-65.625L92.0898-60.9375L106.885-60.9375C108.691-60.9375 110.107-59.5703 110.059-57.8125C110.01-56.1035 108.691-54.7852 106.885-54.7852L102.148-54.7852L99.9023-4.98047C99.707-0.244141 96.7773 2.39258 92.0898 2.39258ZM67.1875-60.9375L85.2051-60.9375L85.2051-65.3809C85.1562-67.0898 83.9355-68.2129 82.0801-68.2129L70.3125-68.2129C68.5059-68.2129 67.2363-67.0898 67.2363-65.3809ZM65.332-7.56836C66.748-7.56836 67.627-8.54492 67.627-9.86328L66.2598-46.9238C66.2598-48.3398 65.2832-49.2188 63.9648-49.2188C62.4023-49.2188 61.5234-48.291 61.5723-46.8262L62.9883-9.81445C63.0371-8.49609 64.0137-7.56836 65.332-7.56836ZM76.1719-7.61719C77.5879-7.61719 78.5645-8.54492 78.5645-9.86328L78.5645-46.9238C78.5645-48.3398 77.6367-49.2188 76.1719-49.2188C74.6582-49.2188 73.8281-48.3398 73.8281-46.9238L73.8281-9.86328C73.8281-8.54492 74.707-7.61719 76.1719-7.61719ZM87.0117-7.56836C88.3301-7.56836 89.3066-8.49609 89.3555-9.81445L90.7715-46.8262C90.8203-48.291 89.9414-49.2188 88.4277-49.2188C87.0605-49.2188 86.084-48.3398 86.0352-46.9238L84.7168-9.86328C84.668-8.54492 85.5957-7.56836 87.0117-7.56836Z"/>
  </g>
  <g id="Medium-L" transform="matrix(1 0 0 1 1670.87 1556)">
   <path d="M75.6836 29.1992C110.938 29.1992 140.088 0.0976562 140.088-35.1562C140.088-70.459 110.889-99.5605 75.6348-99.5605C40.3809-99.5605 11.2793-70.459 11.2793-35.1562C11.2793 0.0976562 40.3809 29.1992 75.6836 29.1992ZM59.5703 2.58789C55.0293 2.58789 52.2461 0 52.0996-4.49219L49.7559-55.2246L44.5312-55.2246C42.9688-55.2246 41.6504-56.4453 41.6992-58.0566C41.6992-59.668 42.9688-60.9375 44.5312-60.9375L59.9609-60.9375L59.9609-65.918C59.9609-71.1914 63.5254-74.5605 69.2871-74.5605L81.9336-74.5605C87.7441-74.5605 91.3574-71.1914 91.3574-65.918L91.3574-60.9375L106.592-60.9375C108.252-60.9375 109.57-59.668 109.521-58.0566C109.473-56.4453 108.252-55.2246 106.592-55.2246L101.611-55.2246L99.3164-4.49219C99.1211 0 96.2402 2.58789 91.7969 2.58789ZM66.3086-60.9375L84.8145-60.9375L84.8145-65.625C84.8145-67.4316 83.5449-68.5547 81.5918-68.5547L69.4824-68.5547C67.627-68.5547 66.3086-67.4316 66.3086-65.625ZM64.6484-7.37305C66.0645-7.37305 66.8945-8.30078 66.8457-9.57031L65.4297-47.168C65.4297-48.584 64.502-49.3652 63.1836-49.3652C61.6699-49.3652 60.8398-48.4863 60.8887-47.1191L62.3535-9.52148C62.4023-8.30078 63.3789-7.37305 64.6484-7.37305ZM75.5371-7.42188C76.9043-7.42188 77.8809-8.34961 77.8809-9.57031L77.8809-47.168C77.8809-48.5352 76.9531-49.3652 75.5371-49.3652C74.0723-49.3652 73.2422-48.5352 73.2422-47.168L73.2422-9.57031C73.2422-8.34961 74.1211-7.42188 75.5371-7.42188ZM86.4258-7.37305C87.6953-7.37305 88.623-8.30078 88.6719-9.52148L90.1855-47.1191C90.2344-48.4863 89.3555-49.3652 87.9395-49.3652C86.5723-49.3652 85.6445-48.584 85.5957-47.168L84.1797-9.57031C84.1797-8.30078 85.0098-7.37305 86.4258-7.37305Z"/>
  </g>
  <g id="Regular-L" transform="matrix(1 0 0 1 1374.97 1556)">
   <path d="M74.8535 28.418C109.668 28.418 138.477-0.390625 138.477-35.2051C138.477-69.9707 109.619-98.7793 74.8047-98.7793C40.0391-98.7793 11.2793-69.9707 11.2793-35.2051C11.2793-0.390625 40.0879 28.418 74.8535 28.418ZM58.3008 2.88086C54.1016 2.88086 51.416 0.390625 51.2207-3.85742L48.877-55.8594L43.2617-55.8594C41.8945-55.8594 40.7715-56.9336 40.7715-58.3008C40.7715-59.7168 41.8945-60.8887 43.2617-60.8887L59.3262-60.8887L59.3262-66.3086C59.3262-71.3379 62.7441-74.6582 68.2129-74.6582L81.4453-74.6582C86.8652-74.6582 90.3809-71.3379 90.3809-66.3086L90.3809-60.8887L106.25-60.8887C107.666-60.8887 108.838-59.7168 108.789-58.3008C108.74-56.9336 107.666-55.8594 106.25-55.8594L100.928-55.8594L98.584-3.85742C98.4375 0.390625 95.6055 2.88086 91.4551 2.88086ZM65.1367-60.8887L84.3262-60.8887L84.3262-65.9668C84.3262-67.8223 83.0078-68.9941 81.0059-68.9941L68.4082-68.9941C66.4551-68.9941 65.1367-67.8223 65.1367-65.9668ZM63.7695-7.12891C65.0879-7.12891 65.8691-8.00781 65.8691-9.22852L64.3555-47.5098C64.3555-48.8281 63.4277-49.6094 62.207-49.6094C60.7422-49.6094 59.9121-48.7793 59.9609-47.4609L61.5723-9.17969C61.6211-7.95898 62.5488-7.12891 63.7695-7.12891ZM74.707-7.17773C76.0254-7.17773 76.9531-8.05664 76.9531-9.22852L76.9531-47.4609C76.9531-48.7793 76.0742-49.6094 74.707-49.6094C73.291-49.6094 72.5098-48.7793 72.5098-47.4609L72.5098-9.22852C72.5098-8.05664 73.3398-7.17773 74.707-7.17773ZM85.5957-7.12891C86.8164-7.12891 87.7441-7.95898 87.793-9.17969L89.4043-47.4609C89.4531-48.7793 88.623-49.6094 87.2559-49.6094C85.9375-49.6094 85.0586-48.8281 85.0098-47.5098L83.4961-9.22852C83.4961-8.00781 84.2773-7.12891 85.5957-7.12891Z"/>
  </g>
  <g id="Light-L" transform="matrix(1 0 0 1 1079.18 1556)">
   <path d="M73.9258 27.4902C108.301 27.4902 136.621-0.830078 136.621-35.2051C136.621-69.5312 108.252-97.8516 73.9258-97.8516C39.5508-97.8516 11.2793-69.5312 11.2793-35.2051C11.2793-0.830078 39.5996 27.4902 73.9258 27.4902ZM57.8125 2.58789C53.7598 2.58789 50.9766-0.0488281 50.8301-4.05273L48.291-56.9336L42.2363-56.9336C41.0156-56.9336 40.0391-57.8125 40.0391-59.0332C40.0391-60.2051 41.0156-61.1816 42.2363-61.1816L58.9355-61.1816L58.9355-66.8945C58.9355-71.4844 62.207-74.6582 67.2852-74.6582L80.6641-74.6582C85.791-74.6582 89.1113-71.4844 89.1113-66.8945L89.1113-61.1816L105.469-61.1816C106.689-61.1816 107.715-60.2051 107.666-59.0332C107.666-57.8125 106.689-56.9336 105.469-56.9336L99.8535-56.9336L97.3145-4.05273C97.168-0.0488281 94.2383 2.58789 90.2832 2.58789ZM63.6719-61.1816L83.9844-61.1816L83.9844-66.6016C83.9844-68.6035 82.5195-69.9219 80.2734-69.9219L67.334-69.9219C65.1367-69.9219 63.6719-68.6035 63.6719-66.6016ZM63.0371-7.37305C64.2578-7.37305 64.9414-8.1543 64.8926-9.27734L63.0859-48.0469C63.0371-49.2188 62.2559-49.9023 61.084-49.9023C59.8145-49.9023 59.0332-49.1211 59.082-47.9492L61.1328-9.17969C61.1816-8.10547 61.9629-7.37305 63.0371-7.37305ZM73.7793-7.42188C74.9023-7.42188 75.7812-8.20312 75.7812-9.27734L75.7812-47.998C75.7812-49.1699 75-49.9023 73.7793-49.9023C72.5098-49.9023 71.7773-49.1699 71.7773-47.998L71.7773-9.27734C71.7773-8.20312 72.6074-7.42188 73.7793-7.42188ZM84.4727-7.37305C85.5957-7.37305 86.3281-8.10547 86.377-9.17969L88.4766-47.9492C88.5254-49.1211 87.6953-49.9023 86.4746-49.9023C85.2539-49.9023 84.4727-49.2188 84.4238-48.0469L82.6172-9.27734C82.5684-8.1543 83.252-7.37305 84.4727-7.37305Z"/>
  </g>
  <g id="Thin-L" transform="matrix(1 0 0 1 783.693 1556)">
   <path d="M72.7051 26.2695C106.494 26.2695 134.18-1.41602 134.18-35.2051C134.18-68.9453 106.494-96.6309 72.7051-96.6309C38.9648-96.6309 11.2793-68.9453 11.2793-35.2051C11.2793-1.41602 38.9648 26.2695 72.7051 26.2695ZM57.0801 2.14844C53.3203 2.14844 50.3906-0.634766 50.2441-4.24805L47.4609-58.3008L40.8691-58.3008C39.9414-58.3008 39.1602-58.9844 39.1602-59.9609C39.1602-60.8398 39.9414-61.6211 40.8691-61.6211L58.4473-61.6211L58.4473-67.627C58.4473-71.6309 61.4746-74.6582 66.0645-74.6582L79.6875-74.6582C84.3262-74.6582 87.4512-71.6309 87.4512-67.627L87.4512-61.6211L104.492-61.6211C105.42-61.6211 106.201-60.8398 106.201-59.9609C106.201-58.9844 105.42-58.3008 104.492-58.3008L98.4863-58.3008L95.6543-4.24805C95.459-0.634766 92.4805 2.14844 88.7695 2.14844ZM61.7188-61.6211L83.5938-61.6211L83.5938-67.3828C83.5938-69.6289 81.8848-71.1426 79.2969-71.1426L65.918-71.1426C63.4277-71.1426 61.7188-69.6289 61.7188-67.3828ZM62.0605-7.66602C63.1836-7.66602 63.6719-8.34961 63.623-9.375L61.377-48.7305C61.3281-49.7559 60.6445-50.293 59.6191-50.293C58.5449-50.293 57.8125-49.6094 57.8613-48.584L60.5469-9.22852C60.5957-8.30078 61.1328-7.66602 62.0605-7.66602ZM72.5098-7.76367C73.4863-7.76367 74.2188-8.44727 74.2188-9.375L74.2188-48.6816C74.2188-49.707 73.6328-50.293 72.5098-50.293C71.4355-50.293 70.8496-49.707 70.8496-48.6816L70.8496-9.375C70.8496-8.44727 71.582-7.76367 72.5098-7.76367ZM82.959-7.66602C83.8867-7.66602 84.4238-8.30078 84.5215-9.22852L87.1582-48.584C87.2559-49.6094 86.5234-50.293 85.4004-50.293C84.4238-50.293 83.7402-49.7559 83.6426-48.7305L81.4453-9.375C81.3477-8.34961 81.8848-7.66602 82.959-7.66602Z"/>
  </g>
  <g id="Ultralight-L" transform="matrix(1 0 0 1 487.616 1556)">
   <path d="M72.1191 25.6348C105.566 25.6348 132.91-1.70898 132.91-35.2051C132.91-68.6523 105.566-95.9961 72.1191-95.9961C38.623-95.9961 11.2793-68.6523 11.2793-35.2051C11.2793-1.70898 38.623 25.6348 72.1191 25.6348ZM56.7383 1.95312C53.125 1.95312 50.0977-0.927734 49.9512-4.3457L47.0703-59.0332L40.1855-59.0332C39.3555-59.0332 38.6719-59.6191 38.6719-60.4492C38.6719-61.1816 39.3555-61.8164 40.1855-61.8164L58.1543-61.8164L58.1543-68.0176C58.1543-71.7285 61.084-74.6582 65.4785-74.6582L79.1992-74.6582C83.5938-74.6582 86.5723-71.7285 86.5723-68.0176L86.5723-61.8164L103.955-61.8164C104.785-61.8164 105.469-61.1816 105.469-60.4492C105.469-59.6191 104.785-59.0332 103.955-59.0332L97.7539-59.0332L94.7754-4.3457C94.6289-0.927734 91.5527 1.95312 87.9883 1.95312ZM60.6934-61.8164L83.3496-61.8164L83.3496-67.8223C83.3496-70.2148 81.543-71.7773 78.8086-71.7773L65.1855-71.7773C62.5-71.7773 60.6934-70.2148 60.6934-67.8223ZM61.5723-7.86133C62.5977-7.86133 63.0371-8.44727 62.9395-9.375L60.5469-49.1211C60.4492-50.0488 59.8145-50.4883 58.8867-50.4883C57.9102-50.4883 57.1777-49.8535 57.2754-48.9258L60.2539-9.22852C60.3027-8.34961 60.7422-7.86133 61.5723-7.86133ZM71.875-7.91016C72.7051-7.91016 73.4375-8.54492 73.4375-9.375L73.4375-49.0234C73.4375-49.9512 72.9004-50.4883 71.875-50.4883C70.8984-50.4883 70.3613-49.9512 70.3613-49.0234L70.3613-9.375C70.3613-8.54492 71.0449-7.91016 71.875-7.91016ZM82.2266-7.86133C83.0566-7.86133 83.4961-8.34961 83.5449-9.22852L86.5234-48.9258C86.6211-49.8535 85.8887-50.4883 84.9121-50.4883C83.9844-50.4883 83.3496-50.0488 83.252-49.1211L80.8594-9.375C80.7617-8.44727 81.2012-7.86133 82.2266-7.86133Z"/>
  </g>
  <g id="Black-M" transform="matrix(1 0 0 1 2870.97 1126)">
   <path d="M62.4023 18.5547C91.9922 18.5547 116.113-5.56641 116.113-35.1562C116.113-64.7461 91.9922-88.8184 62.4023-88.8184C32.8125-88.8184 8.74023-64.7461 8.74023-35.1562C8.74023-5.56641 32.8125 18.5547 62.4023 18.5547ZM52.4414-7.56836C47.5586-7.56836 44.873-9.96094 44.6289-14.7949L42.9688-48.0469L40.7227-48.0469C38.5254-48.0469 36.7188-49.5605 36.8164-51.7578C36.9629-54.0527 38.5254-55.4688 40.7227-55.4688L49.5605-55.4688L49.5605-57.2266C49.5605-62.1582 52.9297-65.0879 59.0332-65.0879L65.8203-65.0879C71.9238-65.0879 75.2441-62.1582 75.2441-57.2266L75.2441-55.4688L84.082-55.4688C86.4258-55.4688 87.9883-54.0527 87.9883-51.7578C87.9883-49.5605 86.4258-48.0469 84.082-48.0469L81.8848-48.0469L80.2246-14.7949C79.9805-9.96094 77.3438-7.56836 72.3633-7.56836ZM56.6895-55.4688L68.1641-55.4688L68.1152-57.4219C68.0664-58.4961 67.2363-59.2773 65.918-59.2773L58.9355-59.2773C57.7148-59.2773 56.8359-58.4961 56.7871-57.4219ZM54.3457-15.1855C55.6152-15.1855 56.5918-16.0645 56.4941-17.2852L55.7617-43.0176C55.7129-44.3848 54.834-45.2148 53.6621-45.2148C52.2461-45.2148 51.4648-44.3359 51.5137-42.9199L52.2461-17.2363C52.3438-15.9668 53.125-15.1855 54.3457-15.1855ZM62.5-15.1855C63.7695-15.1855 64.5996-15.9668 64.5996-17.2363L64.5996-43.1641C64.5996-44.4824 63.7695-45.2148 62.5-45.2148C61.084-45.2148 60.3516-44.4824 60.3516-43.1641L60.3516-17.2363C60.3516-15.9668 61.084-15.1855 62.5-15.1855ZM70.5566-15.1855C71.7285-15.1855 72.5586-15.9668 72.6074-17.2363L73.3887-42.9199C73.4375-44.3359 72.6074-45.2148 71.2891-45.2148C70.0684-45.2148 69.1895-44.3848 69.1406-43.0176L68.3594-17.2852C68.3105-16.0645 69.2383-15.1855 70.5566-15.1855Z"/>
  </g>
  <g id="Heavy-M" transform="matrix(1 0 0 1 2575.19 1126)">
   <path d="M61.5234 17.627C90.5273 17.627 114.258-6.10352 114.258-35.1562C114.258-64.1602 90.5273-87.8906 61.4746-87.8906C32.4707-87.8906 8.74023-64.1602 8.74023-35.1562C8.74023-6.10352 32.4707 17.627 61.5234 17.627ZM50.8301-7.08008C46.2891-7.08008 43.75-9.375 43.5059-13.8672L41.8457-48.6816L39.1602-48.6816C37.207-48.6816 35.5957-50.0488 35.6934-52.002C35.791-54.0039 37.207-55.3223 39.1602-55.3223L48.7793-55.3223L48.7793-57.666C48.7793-62.4023 52.002-65.2832 57.7148-65.2832L65.2832-65.2832C70.9961-65.2832 74.2188-62.4023 74.2188-57.666L74.2188-55.3223L83.7891-55.3223C85.8398-55.3223 87.3047-54.0039 87.3047-52.002C87.2559-50.0488 85.8398-48.6816 83.7891-48.6816L81.1523-48.6816L79.4922-13.8672C79.248-9.375 76.7578-7.08008 72.168-7.08008ZM55.4199-55.3223L67.5781-55.3223L67.5293-57.7148C67.4805-58.8379 66.6016-59.668 65.2832-59.668L57.7148-59.668C56.3965-59.668 55.5176-58.8379 55.4688-57.7148ZM53.2715-14.7461C54.541-14.7461 55.4199-15.5762 55.3711-16.748L54.541-43.3594C54.4922-44.6777 53.6621-45.459 52.4902-45.459C51.1719-45.459 50.3906-44.6289 50.4395-43.2617L51.2695-16.6992C51.3184-15.5273 52.0996-14.7461 53.2715-14.7461ZM61.5234-14.7461C62.793-14.7461 63.5742-15.5273 63.5742-16.6992L63.5742-43.457C63.5742-44.7266 62.793-45.459 61.5234-45.459C60.2051-45.459 59.4727-44.7266 59.4727-43.457L59.4727-16.6992C59.4727-15.5273 60.2051-14.7461 61.5234-14.7461ZM69.7266-14.7461C70.8496-14.7461 71.6797-15.5273 71.7285-16.6992L72.5586-43.2617C72.6074-44.6289 71.8262-45.459 70.5566-45.459C69.3359-45.459 68.5059-44.6777 68.457-43.3594L67.627-16.748C67.5781-15.5762 68.457-14.7461 69.7266-14.7461Z"/>
  </g>
  <g id="Bold-M" transform="matrix(1 0 0 1 2279.5 1126)">
   <path d="M60.498 16.5527C88.8672 16.5527 112.207-6.73828 112.207-35.1562C112.207-63.5742 88.8672-86.9141 60.4492-86.9141C32.0312-86.9141 8.74023-63.5742 8.74023-35.1562C8.74023-6.73828 32.0801 16.5527 60.498 16.5527ZM48.9746-6.54297C44.8242-6.54297 42.4805-8.69141 42.2852-12.793L40.5762-49.3164L37.4023-49.3164C35.7422-49.3164 34.3262-50.5371 34.375-52.2461C34.4727-54.0039 35.7422-55.2246 37.4023-55.2246L47.9004-55.2246L47.9004-58.1055C47.9004-62.6465 50.9277-65.4297 56.2012-65.4297L64.6484-65.4297C69.9219-65.4297 72.998-62.6465 72.998-58.1055L72.998-55.2246L83.4473-55.2246C85.2051-55.2246 86.4746-54.0039 86.4746-52.2461C86.4746-50.5371 85.2051-49.3164 83.4473-49.3164L80.3711-49.3164L78.6621-12.793C78.4668-8.69141 76.0742-6.54297 71.9238-6.54297ZM54.0039-55.2246L66.8457-55.2246L66.8457-58.0566C66.7969-59.2773 65.918-60.0586 64.5996-60.0586L56.2988-60.0586C54.9805-60.0586 54.1016-59.2773 54.0527-58.0566ZM52.0996-14.2578C53.2715-14.2578 54.1016-15.0391 54.0527-16.1621L53.1738-43.75C53.125-44.9707 52.3438-45.7031 51.2207-45.7031C49.9512-45.7031 49.2188-44.9219 49.2676-43.6523L50.1465-16.1133C50.1465-15.0391 50.9766-14.2578 52.0996-14.2578ZM60.4492-14.2578C61.6699-14.2578 62.4512-15.0391 62.4512-16.1621L62.4512-43.7988C62.4512-44.9707 61.6699-45.7031 60.4492-45.7031C59.1797-45.7031 58.4473-44.9707 58.4473-43.7988L58.4473-16.1621C58.4473-15.0391 59.1797-14.2578 60.4492-14.2578ZM68.75-14.2578C69.873-14.2578 70.7031-15.0391 70.752-16.1133L71.6309-43.6523C71.6309-44.9219 70.8984-45.7031 69.6777-45.7031C68.5059-45.7031 67.7246-44.9707 67.6758-43.75L66.7969-16.1621C66.748-15.0391 67.5781-14.2578 68.75-14.2578Z"/>
  </g>
  <g id="Semibold-M" transform="matrix(1 0 0 1 1983.5 1126)">
   <path d="M59.7656 15.8691C87.7441 15.8691 110.791-7.22656 110.791-35.1562C110.791-63.1348 87.6953-86.2305 59.7656-86.2305C31.7871-86.2305 8.74023-63.1348 8.74023-35.1562C8.74023-7.22656 31.7871 15.8691 59.7656 15.8691ZM47.7051-6.15234C43.8477-6.15234 41.6016-8.20312 41.4551-12.1094L39.7461-49.8047L36.1816-49.8047C34.7168-49.8047 33.4961-50.9277 33.4961-52.4414C33.5449-53.9551 34.7168-55.127 36.1816-55.127L47.2656-55.127L47.2656-58.4473C47.2656-62.8418 50.2441-65.5762 55.1758-65.5762L64.2578-65.5762C69.2383-65.5762 72.168-62.8418 72.168-58.4473L72.168-55.127L83.2031-55.127C84.7656-55.127 85.9375-53.9551 85.9375-52.4414C85.8887-50.9277 84.7656-49.8047 83.2031-49.8047L79.7852-49.8047L78.0762-12.1094C77.9297-8.20312 75.6348-6.15234 71.7773-6.15234ZM53.0273-55.127L66.3574-55.127L66.3574-58.3008C66.3086-59.5215 65.4297-60.3516 64.0625-60.3516L55.3223-60.3516C54.0039-60.3516 53.0762-59.5215 53.0762-58.3008ZM51.2695-13.916C52.4414-13.916 53.1738-14.6973 53.1738-15.7715L52.2461-43.9941C52.1973-45.166 51.416-45.8984 50.3418-45.8984C49.0723-45.8984 48.3887-45.1172 48.4375-43.9453L49.3652-15.7227C49.3652-14.6484 50.1953-13.916 51.2695-13.916ZM59.7168-13.916C60.8887-13.916 61.6699-14.6973 61.6699-15.7227L61.6699-44.043C61.6699-45.166 60.8887-45.8984 59.7168-45.8984C58.4961-45.8984 57.7637-45.166 57.7637-44.043L57.7637-15.7227C57.7637-14.6973 58.4961-13.916 59.7168-13.916ZM68.1152-13.916C69.1895-13.916 70.0195-14.6484 70.0195-15.7227L70.9473-43.9453C70.9961-45.1172 70.3125-45.8984 69.0918-45.8984C67.9688-45.8984 67.1875-45.166 67.1387-43.9941L66.2109-15.7715C66.2109-14.6973 66.9434-13.916 68.1152-13.916Z"/>
  </g>
  <g id="Medium-M" transform="matrix(1 0 0 1 1687.3 1126)">
   <path d="M59.2285 15.332C86.9141 15.332 109.766-7.51953 109.766-35.2051C109.766-62.8418 86.8652-85.6934 59.1797-85.6934C31.543-85.6934 8.74023-62.8418 8.74023-35.2051C8.74023-7.51953 31.5918 15.332 59.2285 15.332ZM46.7285-5.9082C43.0664-5.9082 40.918-7.86133 40.7715-11.5234L39.0625-50.1465L35.3027-50.1465C33.9355-50.1465 32.8125-51.1719 32.8613-52.5391C32.8613-53.9551 33.9355-55.0293 35.3027-55.0293L46.8262-55.0293L46.8262-58.6914C46.8262-62.9883 49.6582-65.6738 54.3945-65.6738L63.916-65.6738C68.6523-65.6738 71.582-62.9883 71.582-58.6914L71.582-55.0293L83.0078-55.0293C84.4238-55.0293 85.5469-53.9551 85.498-52.5391C85.4492-51.1719 84.4238-50.1465 83.0078-50.1465L79.3945-50.1465L77.6855-11.5234C77.5391-7.86133 75.293-5.9082 71.6797-5.9082ZM52.2949-55.0293L66.0156-55.0293L65.9668-58.4961C65.9668-59.7656 65.0879-60.5957 63.7207-60.5957L54.5898-60.5957C53.2227-60.5957 52.3438-59.7656 52.2949-58.4961ZM50.6348-13.6719C51.7578-13.6719 52.4902-14.4043 52.4902-15.4297L51.5137-44.1895C51.5137-45.3125 50.7324-45.9961 49.6582-45.9961C48.4375-45.9961 47.7539-45.3125 47.8027-44.1406L48.7305-15.4297C48.7793-14.4043 49.5605-13.6719 50.6348-13.6719ZM59.1309-13.6719C60.3027-13.6719 61.084-14.4043 61.084-15.4297L61.084-44.1895C61.084-45.3125 60.3027-45.9961 59.1309-45.9961C57.959-45.9961 57.2754-45.3125 57.2754-44.1895L57.2754-15.4297C57.2754-14.4043 57.959-13.6719 59.1309-13.6719ZM67.627-13.6719C68.7012-13.6719 69.4824-14.4043 69.5312-15.4297L70.459-44.1406C70.5078-45.3125 69.8242-45.9961 68.6523-45.9961C67.5293-45.9961 66.748-45.3125 66.748-44.1895L65.7715-15.4297C65.7715-14.4043 66.5039-13.6719 67.627-13.6719Z"/>
  </g>
  <g id="Regular-M" transform="matrix(1 0 0 1 1391.3 1126)">
   <path d="M58.5449 14.5996C85.791 14.5996 108.35-7.95898 108.35-35.2051C108.35-62.4023 85.7422-85.0098 58.4961-85.0098C31.2988-85.0098 8.74023-62.4023 8.74023-35.2051C8.74023-7.95898 31.3477 14.5996 58.5449 14.5996ZM45.5078-5.51758C42.0898-5.51758 40.0879-7.42188 39.9414-10.8398L38.2324-50.6348L34.082-50.6348C32.9102-50.6348 31.9824-51.5625 31.9824-52.7344C31.9824-53.9551 32.9102-54.9316 34.082-54.9316L46.1914-54.9316L46.1914-58.9844C46.1914-63.1348 48.9746-65.8203 53.3691-65.8203L63.5254-65.8203C67.9688-65.8203 70.752-63.1348 70.752-58.9844L70.752-54.9316L82.7637-54.9316C83.9844-54.9316 85.0098-53.9551 84.9609-52.7344C84.9121-51.5625 83.9844-50.6348 82.7637-50.6348L78.8086-50.6348L77.0996-10.8398C77.002-7.42188 74.8535-5.51758 71.5332-5.51758ZM51.3184-54.9316L65.5273-54.9316L65.5273-58.6914C65.5273-60.0098 64.5996-60.8887 63.2324-60.8887L53.6133-60.8887C52.2461-60.8887 51.3184-60.0098 51.3184-58.6914ZM49.8535-13.3301C50.9277-13.3301 51.6113-14.0625 51.5625-15.0391L50.5859-44.4336C50.5859-45.5078 49.8535-46.1914 48.8281-46.1914C47.6074-46.1914 46.9727-45.5078 46.9727-44.4336L47.998-15.0391C47.998-14.0625 48.7793-13.3301 49.8535-13.3301ZM58.3984-13.3301C59.5215-13.3301 60.3027-14.0625 60.3027-15.0391L60.3027-44.4336C60.3027-45.5078 59.5703-46.1914 58.3984-46.1914C57.2754-46.1914 56.5918-45.5078 56.5918-44.4336L56.5918-15.0391C56.5918-14.0625 57.2754-13.3301 58.3984-13.3301ZM66.9922-13.3301C68.0176-13.3301 68.8477-14.0625 68.8477-15.0391L69.8242-44.4336C69.873-45.5078 69.1895-46.1914 68.0664-46.1914C66.9434-46.1914 66.2109-45.5078 66.2109-44.4336L65.2344-15.0391C65.2344-14.0625 65.8691-13.3301 66.9922-13.3301Z"/>
  </g>
  <g id="Light-M" transform="matrix(1 0 0 1 1095.42 1126)">
   <path d="M57.7148 13.7695C84.5215 13.7695 106.689-8.34961 106.689-35.2051C106.689-62.0117 84.5215-84.1797 57.666-84.1797C30.8594-84.1797 8.74023-62.0117 8.74023-35.2051C8.74023-8.34961 30.9082 13.7695 57.7148 13.7695ZM45.0195-5.81055C41.7969-5.81055 39.6973-7.76367 39.5508-10.9863L37.6953-51.5625L33.2031-51.5625C32.1777-51.5625 31.3477-52.3438 31.3477-53.3691C31.3477-54.3457 32.1777-55.2246 33.2031-55.2246L45.8496-55.2246L45.8496-59.5215C45.8496-63.2812 48.4375-65.8203 52.5391-65.8203L62.8418-65.8203C66.9434-65.8203 69.6289-63.2812 69.6289-59.5215L69.6289-55.2246L82.0801-55.2246C83.1055-55.2246 83.9844-54.3457 83.9355-53.3691C83.9355-52.3438 83.1055-51.5625 82.0801-51.5625L77.8809-51.5625L75.9766-10.9863C75.8789-7.76367 73.6328-5.81055 70.5078-5.81055ZM50-55.2246L65.2344-55.2246L65.2344-59.2285C65.2344-60.7422 64.1602-61.7188 62.5488-61.7188L52.6367-61.7188C51.0742-61.7188 50-60.7422 50-59.2285ZM49.1699-13.5254C50.1953-13.5254 50.7324-14.209 50.7324-15.0879L49.4629-44.9219C49.4141-45.8984 48.7793-46.4844 47.8516-46.4844C46.7773-46.4844 46.1426-45.8496 46.1914-44.873L47.5586-15.0391C47.6074-14.1602 48.291-13.5254 49.1699-13.5254ZM57.5684-13.5742C58.5449-13.5742 59.2285-14.209 59.2285-15.0879L59.2285-44.873C59.2285-45.8496 58.5938-46.4844 57.5684-46.4844C56.543-46.4844 55.957-45.8496 55.957-44.873L55.957-15.0879C55.957-14.209 56.5918-13.5742 57.5684-13.5742ZM65.9668-13.5254C66.8945-13.5254 67.5293-14.1602 67.5781-15.0391L68.9941-44.873C68.9941-45.8496 68.4082-46.4844 67.334-46.4844C66.3574-46.4844 65.7227-45.8984 65.6738-44.9219L64.4043-15.0879C64.4043-14.209 64.9414-13.5254 65.9668-13.5254Z"/>
  </g>
  <g id="Thin-M" transform="matrix(1 0 0 1 799.806 1126)">
   <path d="M56.6406 12.6953C82.9102 12.6953 104.492-8.88672 104.492-35.2051C104.492-61.4746 82.9102-83.0566 56.5918-83.0566C30.3223-83.0566 8.74023-61.4746 8.74023-35.2051C8.74023-8.88672 30.3223 12.6953 56.6406 12.6953ZM44.3848-6.15234C41.4062-6.15234 39.1602-8.30078 39.0625-11.1816L36.9629-52.832L31.9824-52.832C31.2012-52.832 30.5176-53.418 30.5176-54.1992C30.5176-54.9316 31.2012-55.5664 31.9824-55.5664L45.4102-55.5664L45.4102-60.2051C45.4102-63.4277 47.8027-65.8203 51.4648-65.8203L61.9629-65.8203C65.6738-65.8203 68.1152-63.4277 68.1152-60.2051L68.1152-55.5664L81.2012-55.5664C81.9824-55.5664 82.6172-54.9316 82.6172-54.1992C82.6172-53.418 81.9824-52.832 81.2012-52.832L76.6113-52.832L74.4629-11.1816C74.3652-8.30078 72.0215-6.15234 69.1406-6.15234ZM48.2422-55.5664L64.8438-55.5664L64.8438-59.9609C64.8438-61.6699 63.5742-62.793 61.6699-62.793L51.3672-62.793C49.5117-62.793 48.2422-61.6699 48.2422-59.9609ZM48.3398-13.8184C49.1699-13.8184 49.6094-14.3555 49.5605-15.1855L47.9492-45.5566C47.9004-46.3867 47.3633-46.8262 46.5332-46.8262C45.6543-46.8262 45.0684-46.2891 45.1172-45.459L47.0215-15.0391C47.1191-14.3066 47.5586-13.8184 48.3398-13.8184ZM56.4941-13.8672C57.2754-13.8672 57.8613-14.4043 57.8613-15.1855L57.8613-45.5078C57.8613-46.3379 57.373-46.8262 56.4941-46.8262C55.6152-46.8262 55.127-46.3379 55.127-45.5078L55.127-15.1855C55.127-14.4043 55.7129-13.8672 56.4941-13.8672ZM64.6484-13.8184C65.3809-13.8184 65.8691-14.3066 65.918-15.0391L67.8223-45.459C67.8711-46.2891 67.2852-46.8262 66.4062-46.8262C65.625-46.8262 65.0391-46.3867 64.9902-45.5566L63.3789-15.1855C63.3301-14.3555 63.7695-13.8184 64.6484-13.8184Z"/>
  </g>
  <g id="Ultralight-M" transform="matrix(1 0 0 1 503.656 1126)">
   <path d="M56.0547 12.1094C82.0801 12.1094 103.369-9.17969 103.369-35.2051C103.369-61.2305 82.0801-82.5195 56.0547-82.5195C30.0293-82.5195 8.74023-61.2305 8.74023-35.2051C8.74023-9.17969 30.0293 12.1094 56.0547 12.1094ZM44.0918-6.34766C41.2109-6.34766 38.916-8.54492 38.8184-11.2793L36.6211-53.4668L31.3477-53.4668C30.6641-53.4668 30.127-53.9551 30.127-54.6387C30.127-55.2246 30.6641-55.7617 31.3477-55.7617L45.166-55.7617L45.166-60.5469C45.166-63.4766 47.4609-65.8203 50.9277-65.8203L61.5234-65.8203C64.9902-65.8203 67.3828-63.4766 67.3828-60.5469L67.3828-55.7617L80.7129-55.7617C81.3965-55.7617 81.9336-55.2246 81.9336-54.6387C81.9336-53.9551 81.3965-53.4668 80.7129-53.4668L75.9766-53.4668L73.7305-11.2793C73.584-8.54492 71.2402-6.34766 68.4082-6.34766ZM47.3633-55.7617L64.6484-55.7617L64.6484-60.3516C64.6484-62.1582 63.2812-63.3301 61.2305-63.3301L50.7324-63.3301C48.7305-63.3301 47.3633-62.1582 47.3633-60.3516ZM47.9004-13.9648C48.6816-13.9648 49.0723-14.4531 48.9746-15.1855L47.168-45.8984C47.1191-46.6309 46.6309-46.9727 45.8496-46.9727C45.0684-46.9727 44.4824-46.4844 44.5801-45.752L46.7773-15.0879C46.8262-14.4043 47.2168-13.9648 47.9004-13.9648ZM55.9082-14.0137C56.5918-14.0137 57.1289-14.502 57.1289-15.1855L57.1289-45.8008C57.1289-46.582 56.7383-46.9727 55.9082-46.9727C55.127-46.9727 54.6875-46.582 54.6875-45.8008L54.6875-15.1855C54.6875-14.502 55.2246-14.0137 55.9082-14.0137ZM63.916-13.9648C64.5996-13.9648 64.9902-14.4043 65.0391-15.0879L67.2363-45.752C67.334-46.4844 66.748-46.9727 65.9668-46.9727C65.2344-46.9727 64.6973-46.6309 64.6484-45.8984L62.8418-15.1855C62.7441-14.4531 63.1348-13.9648 63.916-13.9648Z"/>
  </g>
  <g id="Black-S" transform="matrix(1 0 0 1 2884.57 696)">
   <path d="M48.8281 6.83594C71.9727 6.83594 90.8203-12.0117 90.8203-35.1562C90.8203-58.3008 71.9727-77.1484 48.8281-77.1484C25.6836-77.1484 6.83594-58.3008 6.83594-35.1562C6.83594-12.0117 25.6836 6.83594 48.8281 6.83594ZM40.9668-13.5254C37.1582-13.5254 35.0586-15.3809 34.8633-19.1406L33.5938-45.3125L31.7871-45.3125C30.0781-45.3125 28.6621-46.4844 28.7598-48.1934C28.8574-49.9512 30.0781-51.0742 31.7871-51.0742L38.7695-51.0742L38.7695-52.4902C38.7695-56.3477 41.4062-58.6426 46.1426-58.6426L51.5137-58.6426C56.2988-58.6426 58.8867-56.3477 58.8867-52.4902L58.8867-51.0742L65.8691-51.0742C67.6758-51.0742 68.8965-49.9512 68.8965-48.1934C68.8965-46.4844 67.6758-45.3125 65.8691-45.3125L64.1113-45.3125L62.793-19.1406C62.5977-15.3809 60.5469-13.5254 56.6895-13.5254ZM44.3359-51.0742L53.3691-51.0742L53.3203-52.6367C53.2715-53.4668 52.6367-54.1016 51.6113-54.1016L46.0938-54.1016C45.1172-54.1016 44.4336-53.4668 44.3848-52.6367ZM42.4805-19.4824C43.5059-19.4824 44.2383-20.166 44.1895-21.1426L43.6035-41.3574C43.5547-42.4316 42.8711-43.0664 41.9434-43.0664C40.8691-43.0664 40.2344-42.3828 40.2832-41.2598L40.8691-21.0938C40.918-20.1172 41.5527-19.4824 42.4805-19.4824ZM48.877-19.4824C49.9023-19.4824 50.5371-20.1172 50.5371-21.0938L50.5371-41.4551C50.5371-42.4805 49.9023-43.0664 48.877-43.0664C47.8027-43.0664 47.2168-42.4805 47.2168-41.4551L47.2168-21.0938C47.2168-20.1172 47.8027-19.4824 48.877-19.4824ZM55.2246-19.4824C56.1523-19.4824 56.7871-20.1172 56.8359-21.0938L57.4219-41.2598C57.4707-42.3828 56.8359-43.0664 55.8105-43.0664C54.834-43.0664 54.1504-42.4316 54.1016-41.3574L53.5156-21.1426C53.4668-20.166 54.1992-19.4824 55.2246-19.4824Z"/>
  </g>
  <g id="Heavy-S" transform="matrix(1 0 0 1 2588.47 696)">
   <path d="M48.2422 6.20117C70.9961 6.20117 89.5996-12.4023 89.5996-35.1562C89.5996-57.9102 70.9961-76.5625 48.1934-76.5625C25.4395-76.5625 6.83594-57.9102 6.83594-35.1562C6.83594-12.4023 25.4395 6.20117 48.2422 6.20117ZM39.7461-13.1348C36.2305-13.1348 34.2285-14.8926 34.082-18.4082L32.8125-45.6543L30.7129-45.6543C29.1504-45.6543 27.8809-46.7773 27.9785-48.291C28.0273-49.9023 29.1504-50.9277 30.7129-50.9277L38.1836-50.9277L38.1836-52.7344C38.1836-56.4941 40.7227-58.7891 45.2148-58.7891L51.1719-58.7891C55.7129-58.7891 58.2031-56.4941 58.2031-52.7344L58.2031-50.9277L65.7227-50.9277C67.334-50.9277 68.457-49.9023 68.457-48.291C68.457-46.7773 67.334-45.6543 65.7227-45.6543L63.6719-45.6543L62.3535-18.4082C62.207-14.8926 60.2539-13.1348 56.6406-13.1348ZM43.5059-50.9277L52.9297-50.9277L52.8809-52.7832C52.832-53.6621 52.1973-54.2969 51.2207-54.2969L45.2637-54.2969C44.2871-54.2969 43.6035-53.6621 43.5547-52.7832ZM41.748-19.1406C42.7246-19.1406 43.457-19.7754 43.4082-20.752L42.8223-41.5527C42.7734-42.5781 42.0898-43.2129 41.1621-43.2129C40.1367-43.2129 39.502-42.5781 39.5508-41.5039L40.1367-20.7031C40.1855-19.7754 40.8203-19.1406 41.748-19.1406ZM48.2422-19.1406C49.2676-19.1406 49.9023-19.7754 49.9023-20.7031L49.9023-41.6504C49.9023-42.627 49.2676-43.2129 48.2422-43.2129C47.2168-43.2129 46.6309-42.627 46.6309-41.6504L46.6309-20.7031C46.6309-19.7754 47.2168-19.1406 48.2422-19.1406ZM54.6875-19.1406C55.6152-19.1406 56.25-19.7754 56.2988-20.7031L56.8848-41.5039C56.9336-42.5781 56.2988-43.2129 55.3223-43.2129C54.3457-43.2129 53.6621-42.5781 53.6133-41.5527L53.0273-20.752C52.9785-19.7754 53.7109-19.1406 54.6875-19.1406Z"/>
  </g>
  <g id="Bold-S" transform="matrix(1 0 0 1 2292.44 696)">
   <path d="M47.5586 5.51758C69.873 5.51758 88.2324-12.8418 88.2324-35.2051C88.2324-57.5195 69.873-75.8789 47.5098-75.8789C25.1953-75.8789 6.83594-57.5195 6.83594-35.2051C6.83594-12.8418 25.1953 5.51758 47.5586 5.51758ZM38.4277-12.6465C35.1562-12.6465 33.3008-14.3066 33.1543-17.5781L31.8848-46.0938L29.4922-46.0938C28.125-46.0938 27.002-47.0703 27.0508-48.4375C27.0996-49.8047 28.125-50.7812 29.4922-50.7812L37.5488-50.7812L37.5488-53.0273C37.5488-56.6895 39.9902-58.9355 44.1895-58.9355L50.7812-58.9355C54.9805-58.9355 57.4219-56.6895 57.4219-53.0273L57.4219-50.7812L65.5273-50.7812C66.9434-50.7812 67.9688-49.8047 67.9688-48.4375C67.9199-47.0703 66.9434-46.0938 65.5273-46.0938L63.1836-46.0938L61.8652-17.5781C61.7188-14.3066 59.9121-12.6465 56.5918-12.6465ZM42.5781-50.7812L52.4414-50.7812L52.3926-52.9785C52.3926-53.9062 51.709-54.4922 50.7324-54.4922L44.2871-54.4922C43.3105-54.4922 42.627-53.9062 42.627-52.9785ZM40.918-18.7012C41.8945-18.7012 42.5293-19.3848 42.5293-20.2637L41.8945-41.7969C41.8945-42.7734 41.2109-43.3594 40.332-43.3594C39.3066-43.3594 38.7207-42.7734 38.7207-41.748L39.3066-20.2637C39.3555-19.3359 40.0391-18.7012 40.918-18.7012ZM47.5098-18.7012C48.4863-18.7012 49.1211-19.3359 49.1211-20.2637L49.1211-41.8457C49.1211-42.8223 48.5352-43.3594 47.5098-43.3594C46.4844-43.3594 45.9473-42.8223 45.9473-41.8457L45.9473-20.2637C45.9473-19.3359 46.4844-18.7012 47.5098-18.7012ZM54.1016-18.7012C54.9805-18.7012 55.6641-19.3359 55.7129-20.2637L56.2988-41.748C56.2988-42.7734 55.7129-43.3594 54.7363-43.3594C53.8086-43.3594 53.125-42.7734 53.125-41.7969L52.4902-20.2637C52.4902-19.3848 53.125-18.7012 54.1016-18.7012Z"/>
  </g>
  <g id="Semibold-S" transform="matrix(1 0 0 1 1996.2 696)">
   <path d="M47.0703 5.0293C69.0918 5.0293 87.3047-13.1348 87.3047-35.2051C87.3047-57.2266 69.0918-75.4395 47.0215-75.4395C25-75.4395 6.83594-57.2266 6.83594-35.2051C6.83594-13.1348 25.0488 5.0293 47.0703 5.0293ZM37.5-12.3535C34.375-12.3535 32.666-13.916 32.5684-17.041L31.2988-46.3379L28.6133-46.3379C27.3926-46.3379 26.416-47.2656 26.416-48.4863C26.4648-49.7559 27.3926-50.6836 28.6133-50.6836L37.1582-50.6836L37.1582-53.2227C37.1582-56.8359 39.502-59.0332 43.457-59.0332L50.5371-59.0332C54.541-59.0332 56.8848-56.8359 56.8848-53.2227L56.8848-50.6836L65.3809-50.6836C66.6992-50.6836 67.6758-49.7559 67.627-48.4863C67.5781-47.2656 66.6992-46.3379 65.3809-46.3379L62.793-46.3379L61.5234-17.041C61.4258-13.916 59.668-12.3535 56.5918-12.3535ZM41.9434-50.6836L52.0996-50.6836L52.0508-53.125C52.0508-54.0527 51.416-54.6387 50.3906-54.6387L43.6523-54.6387C42.6758-54.6387 41.9922-54.0527 41.9922-53.125ZM40.332-18.457C41.3086-18.457 41.9434-19.0918 41.8945-19.9707L41.3086-41.9434C41.2598-42.9199 40.625-43.5059 39.7461-43.5059C38.7207-43.5059 38.1348-42.8711 38.1836-41.8945L38.7695-19.9219C38.7695-19.043 39.4531-18.457 40.332-18.457ZM47.0215-18.457C47.998-18.457 48.6328-19.043 48.6328-19.9219L48.6328-41.9922C48.6328-42.9199 47.998-43.5059 47.0215-43.5059C46.0449-43.5059 45.459-42.9199 45.459-41.9922L45.459-19.9219C45.459-19.043 46.0449-18.457 47.0215-18.457ZM53.7109-18.457C54.5898-18.457 55.2734-19.043 55.2734-19.9219L55.8594-41.8945C55.9082-42.8711 55.3223-43.5059 54.3457-43.5059C53.418-43.5059 52.7832-42.9199 52.7344-41.9434L52.1484-19.9707C52.0996-19.0918 52.7344-18.457 53.7109-18.457Z"/>
  </g>
  <g id="Medium-S" transform="matrix(1 0 0 1 1699.83 696)">
   <path d="M46.7285 4.6875C68.5547 4.6875 86.6211-13.3789 86.6211-35.2051C86.6211-57.0312 68.5059-75.0977 46.6797-75.0977C24.8535-75.0977 6.83594-57.0312 6.83594-35.2051C6.83594-13.3789 24.9023 4.6875 46.7285 4.6875ZM36.7676-12.1094C33.8379-12.1094 32.2266-13.623 32.0801-16.6016L30.8105-46.5332L27.9785-46.5332C26.8555-46.5332 25.9277-47.4121 25.9766-48.5352C25.9766-49.707 26.8555-50.6348 27.9785-50.6348L36.8164-50.6348L36.8164-53.418C36.8164-56.9336 39.1113-59.082 42.9199-59.082L50.3418-59.082C54.1504-59.082 56.4941-56.9336 56.4941-53.418L56.4941-50.6348L65.2832-50.6348C66.5039-50.6348 67.4316-49.707 67.3828-48.5352C67.334-47.4121 66.5039-46.5332 65.2832-46.5332L62.5488-46.5332L61.2793-16.6016C61.1816-13.623 59.4727-12.1094 56.543-12.1094ZM41.5039-50.6348L51.8066-50.6348L51.8066-53.2227C51.8066-54.1504 51.123-54.7852 50.1465-54.7852L43.1152-54.7852C42.1875-54.7852 41.5039-54.1504 41.5039-53.2227ZM39.8926-18.2129C40.8691-18.2129 41.4551-18.8477 41.4551-19.7266L40.8203-42.041C40.8203-43.0176 40.1855-43.6035 39.3066-43.6035C38.2812-43.6035 37.7441-42.9688 37.7441-42.041L38.3301-19.6777C38.3301-18.8477 39.0625-18.2129 39.8926-18.2129ZM46.6309-18.2129C47.6074-18.2129 48.2422-18.8477 48.2422-19.6777L48.2422-42.0898C48.2422-43.0176 47.6074-43.6035 46.6309-43.6035C45.6543-43.6035 45.1172-43.0176 45.1172-42.0898L45.1172-19.6777C45.1172-18.8477 45.6543-18.2129 46.6309-18.2129ZM53.3691-18.2129C54.248-18.2129 54.9316-18.8477 54.9316-19.6777L55.5664-42.041C55.5664-42.9688 55.0293-43.6035 54.0527-43.6035C53.125-43.6035 52.4902-43.0176 52.4902-42.041L51.8555-19.7266C51.8555-18.8477 52.4414-18.2129 53.3691-18.2129Z"/>
  </g>
  <g id="Regular-S" transform="matrix(1 0 0 1 1403.58 696)">
   <path d="M46.2402 4.19922C67.7734 4.19922 85.6934-13.6719 85.6934-35.2051C85.6934-56.7383 67.7246-74.6094 46.1914-74.6094C24.707-74.6094 6.83594-56.7383 6.83594-35.2051C6.83594-13.6719 24.7559 4.19922 46.2402 4.19922ZM35.8887-11.8164C33.1055-11.8164 31.5918-13.2324 31.4941-16.0156L30.1758-46.8262L27.1484-46.8262C26.1719-46.8262 25.3418-47.6562 25.3418-48.6328C25.3418-49.6582 26.1719-50.5371 27.1484-50.5371L36.377-50.5371L36.377-53.6133C36.377-57.0312 38.5742-59.1797 42.1875-59.1797L50.0977-59.1797C53.7109-59.1797 55.957-57.0312 55.957-53.6133L55.957-50.5371L65.1855-50.5371C66.2109-50.5371 67.0898-49.6582 67.041-48.6328C66.9922-47.6562 66.2109-46.8262 65.1855-46.8262L62.207-46.8262L60.9375-16.0156C60.8398-13.2324 59.2285-11.8164 56.543-11.8164ZM40.8691-50.5371L51.4648-50.5371L51.4648-53.3691C51.4648-54.2969 50.8301-54.9316 49.8535-54.9316L42.4805-54.9316C41.5039-54.9316 40.8691-54.2969 40.8691-53.3691ZM39.3555-17.9688C40.2832-17.9688 40.8203-18.5547 40.8203-19.3848L40.1855-42.2363C40.1855-43.1152 39.5996-43.7012 38.7207-43.7012C37.6953-43.7012 37.1582-43.1152 37.1582-42.1875L37.793-19.3848C37.793-18.5547 38.4766-17.9688 39.3555-17.9688ZM46.1426-17.9688C47.1191-17.9688 47.7539-18.5547 47.7539-19.3848L47.7539-42.1875C47.7539-43.1152 47.1191-43.7012 46.1426-43.7012C45.2148-43.7012 44.6289-43.1152 44.6289-42.1875L44.6289-19.3848C44.6289-18.5547 45.2148-17.9688 46.1426-17.9688ZM52.9785-17.9688C53.8086-17.9688 54.541-18.5547 54.541-19.3848L55.127-42.1875C55.127-43.1152 54.5898-43.7012 53.6621-43.7012C52.7344-43.7012 52.0996-43.1152 52.0996-42.2363L51.4648-19.3848C51.4648-18.5547 52.0508-17.9688 52.9785-17.9688Z"/>
  </g>
  <g id="Light-S" transform="matrix(1 0 0 1 1107.6 696)">
   <path d="M45.5078 3.4668C66.6992 3.4668 84.2285-14.0137 84.2285-35.2051C84.2285-56.3965 66.6504-73.877 45.5078-73.877C24.3164-73.877 6.83594-56.3965 6.83594-35.2051C6.83594-14.0137 24.3652 3.4668 45.5078 3.4668ZM35.4492-12.0605C32.8613-12.0605 31.25-13.5742 31.1523-16.1621L29.7363-47.6562L26.3672-47.6562C25.4883-47.6562 24.8047-48.3398 24.8047-49.1699C24.8047-50.0488 25.4883-50.7812 26.3672-50.7812L36.084-50.7812L36.084-54.0527C36.084-57.1289 38.1348-59.1797 41.5039-59.1797L49.5117-59.1797C52.832-59.1797 54.9805-57.1289 54.9805-54.0527L54.9805-50.7812L64.5508-50.7812C65.4785-50.7812 66.1621-50.0488 66.1621-49.1699C66.1133-48.3398 65.4785-47.6562 64.5508-47.6562L61.377-47.6562L59.9609-16.1621C59.8633-13.5742 58.1543-12.0605 55.6152-12.0605ZM39.6973-50.7812L51.2207-50.7812L51.2207-53.8574C51.2207-54.9316 50.4395-55.6641 49.2676-55.6641L41.6016-55.6641C40.4785-55.6641 39.6973-54.9316 39.6973-53.8574ZM38.7695-18.1641C39.5996-18.1641 40.0879-18.7012 40.0879-19.4336L39.209-42.627C39.1602-43.457 38.623-43.9453 37.8418-43.9453C36.9629-43.9453 36.4746-43.4082 36.4746-42.627L37.4023-19.3848C37.4512-18.6523 38.0371-18.1641 38.7695-18.1641ZM45.4102-18.1641C46.2402-18.1641 46.8262-18.7012 46.8262-19.4336L46.8262-42.627C46.8262-43.4082 46.2891-43.9453 45.4102-43.9453C44.5801-43.9453 44.0918-43.4082 44.0918-42.627L44.0918-19.4336C44.0918-18.7012 44.5801-18.1641 45.4102-18.1641ZM52.0508-18.1641C52.832-18.1641 53.418-18.6523 53.418-19.3848L54.3945-42.627C54.3945-43.4082 53.9062-43.9453 53.0273-43.9453C52.2461-43.9453 51.6602-43.457 51.6602-42.627L50.7812-19.4336C50.7812-18.7012 51.2695-18.1641 52.0508-18.1641Z"/>
  </g>
  <g id="Thin-S" transform="matrix(1 0 0 1 811.867 696)">
   <path d="M44.5801 2.53906C65.2832 2.53906 82.2754-14.502 82.2754-35.2051C82.2754-55.9082 65.2344-72.9492 44.5312-72.9492C23.8281-72.9492 6.83594-55.9082 6.83594-35.2051C6.83594-14.502 23.877 2.53906 44.5801 2.53906ZM34.9121-12.4023C32.5195-12.4023 30.8105-14.0137 30.7129-16.3574L29.1016-48.7793L25.293-48.7793C24.6094-48.7793 24.0723-49.2676 24.0723-49.9023C24.0723-50.5371 24.6094-51.123 25.293-51.123L35.6445-51.123L35.6445-54.6387C35.6445-57.2754 37.5488-59.1797 40.5273-59.1797L48.7305-59.1797C51.709-59.1797 53.6621-57.2754 53.6621-54.6387L53.6621-51.123L63.7695-51.123C64.4531-51.123 64.9902-50.5371 64.9902-49.9023C64.9902-49.2676 64.4531-48.7793 63.7695-48.7793L60.2539-48.7793L58.6426-16.3574C58.5449-14.0137 56.7383-12.4023 54.3945-12.4023ZM38.1348-51.123L50.8789-51.123L50.8789-54.4922C50.8789-55.7617 49.9023-56.5918 48.4863-56.5918L40.4785-56.5918C39.1113-56.5918 38.1348-55.7617 38.1348-54.4922ZM38.0371-18.4082C38.7207-18.4082 39.1113-18.8477 39.0625-19.4824L37.8418-43.2129C37.793-43.8477 37.3535-44.2383 36.7188-44.2383C35.9863-44.2383 35.498-43.7988 35.5469-43.1152L36.9629-19.4336C37.0117-18.7988 37.4023-18.4082 38.0371-18.4082ZM44.4336-18.4082C45.1172-18.4082 45.6055-18.8965 45.6055-19.4824L45.6055-43.1641C45.6055-43.8477 45.166-44.2383 44.4336-44.2383C43.75-44.2383 43.3105-43.8477 43.3105-43.1641L43.3105-19.4824C43.3105-18.8965 43.7988-18.4082 44.4336-18.4082ZM50.8789-18.4082C51.5137-18.4082 51.9043-18.7988 51.9531-19.4336L53.3691-43.1152C53.418-43.7988 52.9297-44.2383 52.1973-44.2383C51.5625-44.2383 51.0742-43.8477 51.0742-43.2129L49.8535-19.4824C49.8047-18.8477 50.1953-18.4082 50.8789-18.4082Z"/>
  </g>
  <g id="Ultralight-S" transform="matrix(1 0 0 1 515.644 696)">
   <path d="M44.043 2.00195C64.502 2.00195 81.2988-14.7461 81.2988-35.2051C81.2988-55.6641 64.502-72.4121 44.043-72.4121C23.584-72.4121 6.83594-55.6641 6.83594-35.2051C6.83594-14.7461 23.584 2.00195 44.043 2.00195ZM34.6191-12.5488C32.373-12.5488 30.5664-14.2578 30.4688-16.4551L28.7598-49.3164L24.707-49.3164C24.1699-49.3164 23.7305-49.7559 23.7305-50.293C23.7305-50.8301 24.1699-51.2695 24.707-51.2695L35.4492-51.2695L35.4492-54.9805C35.4492-57.373 37.2559-59.1797 40.0391-59.1797L48.3398-59.1797C51.123-59.1797 52.9785-57.373 52.9785-54.9805L52.9785-51.2695L63.3789-51.2695C63.916-51.2695 64.4043-50.8301 64.4043-50.293C64.4043-49.7559 63.916-49.3164 63.3789-49.3164L59.668-49.3164L57.959-16.4551C57.8613-14.2578 56.0059-12.5488 53.8086-12.5488ZM37.3535-51.2695L50.7324-51.2695L50.7324-54.7852C50.7324-56.2012 49.6582-57.1289 48.0957-57.1289L39.9414-57.1289C38.3789-57.1289 37.3535-56.2012 37.3535-54.7852ZM37.6465-18.5059C38.2812-18.5059 38.5742-18.9453 38.5254-19.5312L37.1582-43.5059C37.1094-44.0918 36.7188-44.3848 36.1328-44.3848C35.4492-44.3848 35.0098-43.9941 35.0586-43.4082L36.7188-19.4336C36.7676-18.8965 37.0605-18.5059 37.6465-18.5059ZM43.9453-18.5547C44.5312-18.5547 44.9707-18.9941 44.9707-19.5312L44.9707-43.457C44.9707-44.043 44.5801-44.3848 43.9453-44.3848C43.3105-44.3848 42.9688-44.043 42.9688-43.457L42.9688-19.5312C42.9688-18.9941 43.4082-18.5547 43.9453-18.5547ZM50.293-18.5059C50.8301-18.5059 51.123-18.8965 51.1719-19.4336L52.832-43.4082C52.8809-43.9941 52.4414-44.3848 51.8066-44.3848C51.1719-44.3848 50.7812-44.0918 50.7324-43.5059L49.3652-19.5312C49.3164-18.9453 49.6094-18.5059 50.293-18.5059Z"/>
  </g>
 </g>
</svg>
